<?xml version="1.0" encoding="UTF-8"?>
<svg id="Layer_1" xmlns="http://www.w3.org/2000/svg" version="1.1" xmlns:xlink="http://www.w3.org/1999/xlink" viewBox="0 0 2001 2001">
  <!-- Generator: Adobe Illustrator 29.9.0, SVG Export Plug-In . SVG Version: 2.1.1 Build 36)  -->
  <defs>
    <style>
      .st0 {
        fill: url(#_Áåçûìÿííûé_ãðàäèåíò_10435);
      }

      .st0, .st1, .st2, .st3, .st4, .st5, .st6, .st7, .st8, .st9, .st10, .st11, .st12, .st13, .st14, .st15, .st16, .st17, .st18, .st19, .st20, .st21, .st22, .st23, .st24, .st25, .st26, .st27, .st28, .st29, .st30, .st31, .st32, .st33, .st34, .st35, .st36, .st37, .st38, .st39, .st40 {
        fill-rule: evenodd;
      }

      .st1 {
        fill: url(#_Áåçûìÿííûé_ãðàäèåíò_10419);
      }

      .st2 {
        fill: url(#_Áåçûìÿííûé_ãðàäèåíò_10413);
      }

      .st3 {
        fill: url(#_Áåçûìÿííûé_ãðàäèåíò_10417);
      }

      .st4 {
        fill: url(#_Áåçûìÿííûé_ãðàäèåíò_10410);
      }

      .st5 {
        fill: url(#_Áåçûìÿííûé_ãðàäèåíò_1046);
      }

      .st6 {
        fill: url(#_Áåçûìÿííûé_ãðàäèåíò_10436);
      }

      .st7 {
        fill: url(#_Áåçûìÿííûé_ãðàäèåíò_10428);
      }

      .st8 {
        fill: url(#_Áåçûìÿííûé_ãðàäèåíò_10434);
      }

      .st9 {
        fill: url(#_Áåçûìÿííûé_ãðàäèåíò_10433);
      }

      .st10 {
        fill: url(#_Áåçûìÿííûé_ãðàäèåíò_10437);
      }

      .st11 {
        fill: url(#_Áåçûìÿííûé_ãðàäèåíò_1045);
      }

      .st12 {
        fill: url(#_Áåçûìÿííûé_ãðàäèåíò_1047);
      }

      .st13 {
        fill: url(#_Áåçûìÿííûé_ãðàäèåíò_10432);
      }

      .st14 {
        fill: url(#_Áåçûìÿííûé_ãðàäèåíò_1041);
      }

      .st15 {
        fill: url(#_Áåçûìÿííûé_ãðàäèåíò_10440);
      }

      .st16 {
        fill: url(#_Áåçûìÿííûé_ãðàäèåíò_10438);
      }

      .st17 {
        fill: url(#_Áåçûìÿííûé_ãðàäèåíò_1048);
      }

      .st18 {
        fill: url(#_Áåçûìÿííûé_ãðàäèåíò_10412);
      }

      .st19 {
        fill: url(#_Áåçûìÿííûé_ãðàäèåíò_10411);
      }

      .st20 {
        fill: url(#_Áåçûìÿííûé_ãðàäèåíò_10426);
      }

      .st21 {
        fill: url(#_Áåçûìÿííûé_ãðàäèåíò_10420);
      }

      .st22 {
        fill: url(#_Áåçûìÿííûé_ãðàäèåíò_1044);
      }

      .st23 {
        fill: url(#_Áåçûìÿííûé_ãðàäèåíò_1043);
      }

      .st24 {
        fill: url(#_Áåçûìÿííûé_ãðàäèåíò_10415);
      }

      .st25 {
        fill: url(#_Áåçûìÿííûé_ãðàäèåíò_10416);
      }

      .st26 {
        fill: url(#_Áåçûìÿííûé_ãðàäèåíò_10431);
      }

      .st27 {
        fill: url(#_Áåçûìÿííûé_ãðàäèåíò_10430);
      }

      .st28 {
        fill: url(#_Áåçûìÿííûé_ãðàäèåíò_10439);
      }

      .st29 {
        fill: url(#_Áåçûìÿííûé_ãðàäèåíò_10425);
      }

      .st30 {
        fill: url(#_Áåçûìÿííûé_ãðàäèåíò_1042);
      }

      .st31 {
        fill: url(#_Áåçûìÿííûé_ãðàäèåíò_10429);
      }

      .st32 {
        fill: url(#_Áåçûìÿííûé_ãðàäèåíò_10421);
      }

      .st33 {
        fill: url(#_Áåçûìÿííûé_ãðàäèåíò_1049);
      }

      .st34 {
        fill: url(#_Áåçûìÿííûé_ãðàäèåíò_10414);
      }

      .st35 {
        fill: url(#_Áåçûìÿííûé_ãðàäèåíò_10423);
      }

      .st36 {
        fill: url(#_Áåçûìÿííûé_ãðàäèåíò_104);
      }

      .st37 {
        fill: url(#_Áåçûìÿííûé_ãðàäèåíò_10418);
      }

      .st38 {
        fill: url(#_Áåçûìÿííûé_ãðàäèåíò_10427);
      }

      .st39 {
        fill: url(#_Áåçûìÿííûé_ãðàäèåíò_10424);
      }

      .st40 {
        fill: url(#_Áåçûìÿííûé_ãðàäèåíò_10422);
      }
    </style>
    <linearGradient id="_Áåçûìÿííûé_ãðàäèåíò_104" data-name="Áåçûìÿííûé ãðàäèåíò 104" x1="620.81" y1="1270.53" x2="711.31" y2="224.55" gradientUnits="userSpaceOnUse">
      <stop offset="0" stop-color="#b0d0fd"/>
      <stop offset=".12" stop-color="#bbd7fc"/>
      <stop offset=".33" stop-color="#dbe9fb"/>
      <stop offset=".54" stop-color="#fffffb"/>
    </linearGradient>
    <linearGradient id="_Áåçûìÿííûé_ãðàäèåíò_1041" data-name="Áåçûìÿííûé ãðàäèåíò 104" x1="876.52" y1="1123.36" x2="911.7" y2="798.54" xlink:href="#_Áåçûìÿííûé_ãðàäèåíò_104"/>
    <linearGradient id="_Áåçûìÿííûé_ãðàäèåíò_1042" data-name="Áåçûìÿííûé ãðàäèåíò 104" x1="155.48" y1="1330.8" x2="259.52" y2="128.37" xlink:href="#_Áåçûìÿííûé_ãðàäèåíò_104"/>
    <linearGradient id="_Áåçûìÿííûé_ãðàäèåíò_1043" data-name="Áåçûìÿííûé ãðàäèåíò 104" x1="469.7" y1="1231.28" x2="552.71" y2="271.82" xlink:href="#_Áåçûìÿííûé_ãðàäèåíò_104"/>
    <linearGradient id="_Áåçûìÿííûé_ãðàäèåíò_1044" data-name="Áåçûìÿííûé ãðàäèåíò 104" x1="1043.54" y1="1230.96" x2="1149.7" y2="837.19" xlink:href="#_Áåçûìÿííûé_ãðàäèåíò_104"/>
    <linearGradient id="_Áåçûìÿííûé_ãðàäèåíò_1045" data-name="Áåçûìÿííûé ãðàäèåíò 104" x1="584.33" y1="350.94" x2="612.92" y2="20.46" gradientTransform="translate(-279.23 492.27) rotate(9.75)" xlink:href="#_Áåçûìÿííûé_ãðàäèåíò_104"/>
    <linearGradient id="_Áåçûìÿííûé_ãðàäèåíò_1046" data-name="Áåçûìÿííûé ãðàäèåíò 104" x1="101.03" y1="975.29" x2="127.12" y2="673.82" xlink:href="#_Áåçûìÿííûé_ãðàäèåíò_104"/>
    <linearGradient id="_Áåçûìÿííûé_ãðàäèåíò_1047" data-name="Áåçûìÿííûé ãðàäèåíò 104" x1="137.07" y1="1449.98" x2="235.27" y2="315.02" xlink:href="#_Áåçûìÿííûé_ãðàäèåíò_104"/>
    <linearGradient id="_Áåçûìÿííûé_ãðàäèåíò_1048" data-name="Áåçûìÿííûé ãðàäèåíò 104" x1="827.7" y1="1329.35" x2="898.45" y2="511.6" xlink:href="#_Áåçûìÿííûé_ãðàäèåíò_104"/>
    <linearGradient id="_Áåçûìÿííûé_ãðàäèåíò_1049" data-name="Áåçûìÿííûé ãðàäèåíò 104" x1="874.7" y1="1363.51" x2="1010.29" y2="716.68" xlink:href="#_Áåçûìÿííûé_ãðàäèåíò_104"/>
    <linearGradient id="_Áåçûìÿííûé_ãðàäèåíò_10410" data-name="Áåçûìÿííûé ãðàäèåíò 104" x1="281.73" y1="1155.85" x2="351.55" y2="348.95" xlink:href="#_Áåçûìÿííûé_ãðàäèåíò_104"/>
    <linearGradient id="_Áåçûìÿííûé_ãðàäèåíò_10411" data-name="Áåçûìÿííûé ãðàäèåíò 104" x1="1376.96" y1="1097.39" x2="1442.82" y2="336.22" xlink:href="#_Áåçûìÿííûé_ãðàäèåíò_104"/>
    <linearGradient id="_Áåçûìÿííûé_ãðàäèåíò_10412" data-name="Áåçûìÿííûé ãðàäèåíò 104" x1="505.34" y1="889.85" x2="577.7" y2="53.43" xlink:href="#_Áåçûìÿííûé_ãðàäèåíò_104"/>
    <linearGradient id="_Áåçûìÿííûé_ãðàäèåíò_10413" data-name="Áåçûìÿííûé ãðàäèåíò 104" x1="1088.91" y1="752.74" x2="1191.08" y2="-428.08" xlink:href="#_Áåçûìÿííûé_ãðàäèåíò_104"/>
    <linearGradient id="_Áåçûìÿííûé_ãðàäèåíò_10414" data-name="Áåçûìÿííûé ãðàäèåíò 104" x1="1256.32" y1="628.79" x2="1322.45" y2="-135.55" xlink:href="#_Áåçûìÿííûé_ãðàäèåíò_104"/>
    <linearGradient id="_Áåçûìÿííûé_ãðàäèåíò_10415" data-name="Áåçûìÿííûé ãðàäèåíò 104" x1="1547.6" y1="485.39" x2="1573.76" y2="243.76" xlink:href="#_Áåçûìÿííûé_ãðàäèåíò_104"/>
    <linearGradient id="_Áåçûìÿííûé_ãðàäèåíò_10416" data-name="Áåçûìÿííûé ãðàäèåíò 104" x1="1683.45" y1="621.75" x2="1800.68" y2="186.96" xlink:href="#_Áåçûìÿííûé_ãðàäèåíò_104"/>
    <linearGradient id="_Áåçûìÿííûé_ãðàäèåíò_10417" data-name="Áåçûìÿííûé ãðàäèåíò 104" x1="1432.52" y1="641.34" x2="1483.03" y2="57.53" xlink:href="#_Áåçûìÿííûé_ãðàäèåíò_104"/>
    <linearGradient id="_Áåçûìÿííûé_ãðàäèåíò_10418" data-name="Áåçûìÿííûé ãðàäèåíò 104" x1="1567.91" y1="593.37" x2="1672.11" y2="96.29" xlink:href="#_Áåçûìÿííûé_ãðàäèåíò_104"/>
    <linearGradient id="_Áåçûìÿííûé_ãðàäèåíò_10419" data-name="Áåçûìÿííûé ãðàäèåíò 104" x1="1601.97" y1="418.5" x2="1628.14" y2="176.88" xlink:href="#_Áåçûìÿííûé_ãðàäèåíò_104"/>
    <linearGradient id="_Áåçûìÿííûé_ãðàäèåíò_10420" data-name="Áåçûìÿííûé ãðàäèåíò 104" x1="1737.82" y1="554.87" x2="1855.05" y2="120.07" xlink:href="#_Áåçûìÿííûé_ãðàäèåíò_104"/>
    <linearGradient id="_Áåçûìÿííûé_ãðàäèåíò_10421" data-name="Áåçûìÿííûé ãðàäèåíò 104" x1="1622.29" y1="526.49" x2="1726.48" y2="29.41" xlink:href="#_Áåçûìÿííûé_ãðàäèåíò_104"/>
    <linearGradient id="_Áåçûìÿííûé_ãðàäèåíò_10422" data-name="Áåçûìÿííûé ãðàäèåíò 104" x1="253.56" y1="336.94" x2="296.42" y2="-158.39" xlink:href="#_Áåçûìÿííûé_ãðàäèåíò_104"/>
    <linearGradient id="_Áåçûìÿííûé_ãðàäèåíò_10423" data-name="Áåçûìÿííûé ãðàäèåíò 104" x1="412.7" y1="282.72" x2="440.55" y2="-39.07" xlink:href="#_Áåçûìÿííûé_ãðàäèåíò_104"/>
    <linearGradient id="_Áåçûìÿííûé_ãðàäèåíò_10424" data-name="Áåçûìÿííûé ãðàäèåíò 104" x1="693.47" y1="233.46" x2="708.02" y2="99.07" xlink:href="#_Áåçûìÿííûé_ãðàäèåíò_104"/>
    <linearGradient id="_Áåçûìÿííûé_ãðàäèåíò_10425" data-name="Áåçûìÿííûé ãðàäèåíò 104" x1="837.2" y1="350.39" x2="927.2" y2="16.58" xlink:href="#_Áåçûìÿííûé_ãðàäèåíò_104"/>
    <linearGradient id="_Áåçûìÿííûé_ãðàäèåíò_10426" data-name="Áåçûìÿííûé ãðàäèåíò 104" x1="587.21" y1="297.38" x2="610.33" y2="30.13" xlink:href="#_Áåçûìÿííûé_ãðàäèåíò_104"/>
    <linearGradient id="_Áåçûìÿííûé_ãðàäèåíò_10427" data-name="Áåçûìÿííûé ãðàäèåíò 104" x1="726.6" y1="319.92" x2="793.2" y2="2.21" xlink:href="#_Áåçûìÿííûé_ãðàäèåíò_104"/>
    <linearGradient id="_Áåçûìÿííûé_ãðàäèåíò_10428" data-name="Áåçûìÿííûé ãðàäèåíò 104" x1="747.67" y1="209.59" x2="762.22" y2="75.21" xlink:href="#_Áåçûìÿííûé_ãðàäèåíò_104"/>
    <linearGradient id="_Áåçûìÿííûé_ãðàäèåíò_10429" data-name="Áåçûìÿííûé ãðàäèåíò 104" x1="891.4" y1="326.52" x2="981.4" y2="-7.29" xlink:href="#_Áåçûìÿííûé_ãðàäèåíò_104"/>
    <linearGradient id="_Áåçûìÿííûé_ãðàäèåíò_10430" data-name="Áåçûìÿííûé ãðàäèåíò 104" x1="780.8" y1="296.05" x2="847.4" y2="-21.66" xlink:href="#_Áåçûìÿííûé_ãðàäèåíò_104"/>
    <linearGradient id="_Áåçûìÿííûé_ãðàäèåíò_10431" data-name="Áåçûìÿííûé ãðàäèåíò 104" x1="941.94" y1="2091.39" x2="1084.86" y2="439.56" gradientTransform="translate(2436.53 368.23) rotate(-159.17) scale(.98 -1)" xlink:href="#_Áåçûìÿííûé_ãðàäèåíò_104"/>
    <linearGradient id="_Áåçûìÿííûé_ãðàäèåíò_10432" data-name="Áåçûìÿííûé ãðàäèåíò 104" x1="1423.49" y1="1772.03" x2="1479.01" y2="1259.28" gradientTransform="translate(2065.67) rotate(-180) scale(.98 -1)" xlink:href="#_Áåçûìÿííûé_ãðàäèåíò_104"/>
    <linearGradient id="_Áåçûìÿííûé_ãðàäèåíò_10433" data-name="Áåçûìÿííûé ãðàäèåíò 104" x1="288.01" y1="2116.04" x2="452.3" y2="217.07" gradientTransform="translate(2065.67) rotate(-180) scale(.98 -1)" xlink:href="#_Áåçûìÿííûé_ãðàäèåíò_104"/>
    <linearGradient id="_Áåçûìÿííûé_ãðàäèåíò_10434" data-name="Áåçûìÿííûé ãðàäèåíò 104" x1="779.8" y1="1804.55" x2="876.41" y2="687.87" gradientTransform="translate(2240.57 117.25) rotate(-171.04) scale(.98 -1)" xlink:href="#_Áåçûìÿííûé_ãðàäèåíò_104"/>
    <linearGradient id="_Áåçûìÿííûé_ãðàäèåíò_10435" data-name="Áåçûìÿííûé ãðàäèåíò 104" x1="855.24" y1="869.51" x2="900.35" y2="348.15" gradientTransform="translate(2338.12 492.27) rotate(170.01) scale(.98 -1) skewX(.48)" xlink:href="#_Áåçûìÿííûé_ãðàäèåíò_104"/>
    <linearGradient id="_Áåçûìÿííûé_ãðàäèåíò_10436" data-name="Áåçûìÿííûé ãðàäèåíò 104" x1="202.92" y1="1554.48" x2="244.09" y2="1078.68" gradientTransform="translate(2065.67) rotate(-180) scale(.98 -1)" xlink:href="#_Áåçûìÿííûé_ãðàäèåíò_104"/>
    <linearGradient id="_Áåçûìÿííûé_ãðàäèåíò_10437" data-name="Áåçûìÿííûé ãðàäèåíò 104" x1="259.13" y1="2304.43" x2="414.22" y2="511.86" gradientTransform="translate(2065.67) rotate(-180) scale(.98 -1)" xlink:href="#_Áåçûìÿííûé_ãðàäèåíò_104"/>
    <linearGradient id="_Áåçûìÿííûé_ãðàäèåíò_10438" data-name="Áåçûìÿííûé ãðàäèåíò 104" x1="1286.44" y1="2105.46" x2="1398.17" y2="814.13" gradientTransform="translate(2065.67) rotate(-180) scale(.98 -1)" xlink:href="#_Áåçûìÿííûé_ãðàäèåíò_104"/>
    <linearGradient id="_Áåçûìÿííûé_ãðàäèåíò_10439" data-name="Áåçûìÿííûé ãðàäèåíò 104" x1="1497.33" y1="2053.66" x2="1711.33" y2="1032.78" gradientTransform="translate(2065.67) rotate(-180) scale(.98 -1)" xlink:href="#_Áåçûìÿííûé_ãðàäèåíò_104"/>
    <linearGradient id="_Áåçûìÿííûé_ãðàäèåíò_10440" data-name="Áåçûìÿííûé ãðàäèåíò 104" x1="486.26" y1="1839.7" x2="596.5" y2="565.52" gradientTransform="translate(2065.67) rotate(-180) scale(.98 -1)" xlink:href="#_Áåçûìÿííûé_ãðàäèåíò_104"/>
  </defs>
  <path class="st36" d="M767.66,903.48c-3.3,10.44-5.93,16.92-5.93,16.92,0,0-118.82,42.09-194.27,25.28-8.93-1.99-17.25-4.8-24.7-8.61-5.39-2.75-10.33-6.03-14.7-9.9,0,0,29.08-86.5,47.63-101.71,7.46-6.12,30.65-23.13,58.72-38.98,1.53-.87,3.08-1.73,4.64-2.58,11.55-6.34,23.81-12.38,36.05-17.33,32.82-13.26,65.54-18.63,84.35-.75,35.5,33.74,18.52,105.05,8.19,137.66Z"/>
  <path class="st14" d="M840.51,1003.6c-4.45-1.05-8.88-2.32-13.28-3.84-5.83-2.02,5.17-12.17,22.34-21.81,7.43-4.17,16.01-8.24,24.88-11.52,7.85-2.9,15.93-5.18,23.63-6.35,11.27-1.71,20.41-.92,27.84,1.25,1.8.52,3.51,1.13,5.11,1.8,6.19,2.58,10.97,6.12,14.67,9.69,4.98,4.8,8,9.65,9.9,12.29,4.86,6.76-56.29,32.34-115.09,18.49Z"/>
  <path class="st30" d="M250.6,834.42c-15.77,15.08-62.81,36.94-104.6,16.33-1.41-.69-2.81-1.43-4.2-2.23-1.84-1.04-1.61-3.72.19-7.4,6.02-12.29,29.59-35.77,52.43-46.98,4.22-2.08,8.43-3.73,12.49-4.82,34.51-9.23,44.91,25.09,48.99,35.51.84,2.13-1.15,5.62-5.3,9.59Z"/>
  <path class="st23" d="M638.53,847.12c-12.37,33.47-46.72,74.64-71.06,98.56-11.07,10.87-20.06,18.18-23.98,19.57-75.46,26.88-172.42,1.12-185.77-17.08-10.8-14.73,44.78-145.38,102.57-200.78,11.97-11.48,24.03-19.72,35.63-23.04,91.44-26.18,124.24,19.57,138.51,62.14,3.72,11.09,6.18,21.97,8.1,31.31,1.72,8.39.02,18.45-3.99,29.33Z"/>
  <path class="st22" d="M1065.26,1039.91c19.42,7.2,43.47,7.61,55.37,2.04,12.1-5.66,4.53-23.98-30.67-18.59-6.61,1.01-24.7,16.55-24.7,16.55Z"/>
  <path class="st11" d="M256.58,808.02c4.88,8.15,25.75,4.06,28.31-.02,2.57-4.09,4.44-15.17-2.04-16.57-6.41-1.38-26.27,16.58-26.27,16.58Z"/>
  <path class="st5" d="M146,850.74c-.42,1.21-1.13,2.29-2.05,3.09-.84.73-3.22,1.47-6.62,2.13-14.69,2.86-48.48,4.34-60.23-1.7,0,0,29.87-13.14,47.91-15.61h0c2.47-.34,4.72-.48,6.64-.35,4.65.3,8.01,1.36,10.34,2.81,4.24,2.63,5.07,6.57,4.01,9.63Z"/>
  <path class="st12" d="M225.62,1011.5c-1.41,1.24-4.82,2.17-9.65,2.77-24.88,3.11-87.39-2.45-107-19.13,0,0,15.25-29.54,46.16-48.54,19.77-12.15,45.95-19.99,78.65-13.04,30.67,6.52.61,70.22-8.17,77.94Z"/>
  <path class="st17" d="M935.8,958.81c-1.43,1.55-3.02,2.99-4.77,4.32-3.78,2.86-8.33,5.16-13.76,6.68-16.32,4.56-42.54,7.27-67.7,8.14-34.03,1.19-66.15-.97-69.26-6.43-5.34-9.38-4.84-22.21-4.84-22.21,0,0,3.97-18.53,22.13-38.09,6.57-7.08,14.99-14.3,25.75-20.82,2.1-1.27,4.29-2.52,6.57-3.73.59-.31,1.17-.62,1.77-.93,51.87-26.66,97.31-3.58,107.34,6.75,8.23,8.47,15.55,46.07-3.24,66.33Z"/>
  <path class="st33" d="M985.52,1061.3c-18.08,13.92-90.97,12.83-96.13,2.13-4.6-9.55,10.25-27.86,22.16-37.78,0,0,0,0,0,0,4.27-3.55,8.15-6.02,10.64-6.63,9.57-2.33,48.74,3.08,65.75,30.46,2.95,4.75,1.67,8.67-2.42,11.82Z"/>
  <path class="st4" d="M373.16,851.95c-.03.12-.07.23-.1.34-.42,1.43-.7,2.24-.7,2.24,0,0-10.78,28.05-27.14,37.11-1.55.86-3.66,1.72-6.21,2.56-23.79,7.82-86.4,14.03-98.38,3.71-7.44-6.42-.22-31.04,19.24-54.74,5.13-6.25,11.11-12.44,17.91-18.21,1.18-1.01,2.39-2,3.62-2.98,11.48-9.13,25.07-17,40.57-22.11,18.76-6.19,31.41-6.23,39.8-2.72h0c8.58,3.59,12.71,10.89,14.37,19.11,2.73,13.52-1.21,29.54-2.99,35.69Z"/>
  <path class="st19" d="M1522.79,750.03c-2.2,1.36-4.64,2.64-7.33,3.81-5.81,2.53-12.81,4.55-21.15,5.89-25.08,4.02-65.39,6.41-104.07,7.18-52.32,1.05-101.68-.86-106.46-5.67-8.21-8.27-7.44-19.59-7.44-19.59,0,0,6.11-16.34,34.01-33.6,10.09-6.24,23.04-12.61,39.59-18.36,3.22-1.12,6.59-2.22,10.1-3.29.9-.28,1.81-.55,2.72-.82,79.74-23.51,149.58-3.16,165,5.95,12.65,7.47,23.9,40.63-4.98,58.5Z"/>
  <path class="st18" d="M653.88,508.83c-2.2,1.52-4.63,2.94-7.3,4.24-5.8,2.81-12.77,5.07-21.08,6.56-25,4.48-65.18,7.14-103.74,8-52.15,1.17-101.36-.96-106.12-6.31-8.19-9.21-7.42-21.82-7.42-21.82,0,0,6.09-18.2,33.91-37.43,10.06-6.96,22.97-14.05,39.46-20.46,3.21-1.25,6.57-2.48,10.07-3.67.9-.31,1.8-.61,2.72-.91,79.48-26.2,149.1-3.52,164.47,6.63,12.61,8.32,23.82,45.27-4.96,65.18Z"/>
  <path class="st2" d="M1300.18,337.19c-5.05,11.51-9.07,18.65-9.07,18.65,0,0-181.73,46.4-297.12,27.87-13.66-2.19-26.39-5.29-37.77-9.49-8.25-3.04-15.79-6.65-22.48-10.91,0,0,44.48-95.36,72.84-112.13,11.41-6.75,46.88-25.5,89.82-42.97,2.34-.96,4.71-1.91,7.1-2.85,17.67-6.99,36.42-13.65,55.14-19.1,50.2-14.61,100.24-20.54,129-.83,54.29,37.2,28.33,115.81,12.53,151.76Z"/>
  <path class="st34" d="M1395.26,359.74c-3.33,7.44-5.98,12.05-5.98,12.05,0,0-119.93,29.98-196.08,18.01-9.01-1.42-17.41-3.42-24.93-6.13-5.44-1.96-10.42-4.3-14.83-7.05,0,0,29.36-61.61,48.07-72.45,7.53-4.36,30.94-16.48,59.27-27.76,1.55-.62,3.11-1.23,4.69-1.84,11.66-4.51,24.03-8.82,36.39-12.34,33.13-9.44,66.15-13.27,85.14-.54,35.83,24.04,18.69,74.82,8.27,98.05Z"/>
  <path class="st24" d="M1499.03,394.68c-5.25-.71-10.47-1.57-15.65-2.6-6.88-1.37,6.1-8.23,26.34-14.75,8.76-2.82,18.87-5.58,29.33-7.79,9.26-1.96,18.78-3.5,27.86-4.29,13.29-1.16,24.07-.62,32.82.84,2.13.35,4.13.77,6.03,1.22,7.3,1.75,12.93,4.14,17.29,6.55,5.87,3.25,9.44,6.53,11.67,8.31,5.73,4.57-66.37,21.88-135.69,12.51Z"/>
  <path class="st25" d="M1699.39,409.04c26.84,6.39,60.07,6.75,76.52,1.81,16.73-5.03,6.26-21.29-42.38-16.51-9.14.9-34.14,14.7-34.14,14.7Z"/>
  <path class="st3" d="M1544.36,374.92c-1.69,1.05-3.56,2.02-5.62,2.92-4.46,1.94-9.82,3.49-16.22,4.52-19.24,3.08-50.15,4.91-79.82,5.51-40.13.8-77.99-.66-81.65-4.35-6.3-6.34-5.71-15.02-5.71-15.02,0,0,4.69-12.53,26.09-25.77,7.74-4.79,17.67-9.67,30.36-14.09,2.47-.86,5.05-1.7,7.75-2.52.69-.21,1.38-.42,2.09-.63,61.16-18.03,114.73-2.42,126.55,4.56,9.7,5.73,18.33,31.16-3.82,44.87Z"/>
  <path class="st37" d="M1672.63,358.33c-21.31,9.41-107.26,8.68-113.34,1.44-5.42-6.46,12.08-18.85,26.13-25.55,0,0,0,0,0,0,5.03-2.4,9.61-4.07,12.55-4.48,11.28-1.58,57.46,2.08,77.51,20.6,3.48,3.21,1.97,5.87-2.86,8Z"/>
  <path class="st1" d="M1553.4,327.79c-5.25-.71-10.47-1.57-15.65-2.6-6.88-1.37,6.1-8.23,26.34-14.75,8.76-2.82,18.87-5.58,29.33-7.79,9.26-1.96,18.78-3.5,27.86-4.29,13.29-1.16,24.07-.62,32.82.84,2.13.35,4.13.77,6.03,1.22,7.3,1.75,12.93,4.14,17.29,6.55,5.87,3.25,9.44,6.53,11.67,8.31,5.73,4.57-66.37,21.88-135.69,12.51Z"/>
  <path class="st21" d="M1753.76,342.15c26.84,6.39,60.07,6.75,76.52,1.81,16.73-5.03,6.26-21.29-42.38-16.51-9.14.9-34.14,14.7-34.14,14.7Z"/>
  <path class="st32" d="M1727,291.44c-21.31,9.41-107.26,8.68-113.34,1.44-5.42-6.46,12.08-18.85,26.13-25.55,0,0,0,0,0,0,5.03-2.4,9.61-4.07,12.55-4.48,11.28-1.58,57.46,2.08,77.51,20.6,3.48,3.21,1.97,5.87-2.86,8Z"/>
  <path class="st40" d="M442.35,158.97c-5.04,4.11-9.04,6.66-9.04,6.66,0,0-181.15,16.56-296.17,9.95-13.62-.78-26.3-1.89-37.65-3.39-8.22-1.08-15.74-2.37-22.41-3.89,0,0,44.34-34.03,72.61-40.01,11.38-2.41,46.73-9.1,89.53-15.33,2.33-.34,4.7-.68,7.08-1.02,17.61-2.49,36.3-4.87,54.96-6.82,50.04-5.22,99.92-7.33,128.59-.3,54.12,13.28,28.24,41.33,12.49,54.16Z"/>
  <path class="st35" d="M537.13,167.02c-3.32,2.65-5.96,4.3-5.96,4.3,0,0-119.55,10.7-195.45,6.43-8.99-.5-17.36-1.22-24.85-2.19-5.43-.7-10.39-1.53-14.79-2.52,0,0,29.26-21.99,47.92-25.85,7.51-1.56,30.84-5.88,59.08-9.91,1.54-.22,3.1-.44,4.67-.66,11.62-1.61,23.96-3.15,36.27-4.4,33.02-3.37,65.94-4.74,84.86-.19,35.71,8.58,18.63,26.7,8.24,34.99Z"/>
  <path class="st39" d="M640.56,179.49c-5.23-.25-10.44-.56-15.6-.93-6.86-.49,6.08-2.94,26.25-5.26,8.73-1.01,18.81-1.99,29.24-2.78,9.23-.7,18.72-1.25,27.77-1.53,13.25-.41,23.99-.22,32.71.3,2.12.13,4.12.27,6.01.44,7.28.62,12.89,1.48,17.24,2.34,5.85,1.16,9.41,2.33,11.63,2.97,5.71,1.63-66.15,7.81-135.25,4.46Z"/>
  <path class="st29" d="M840.28,184.61c26.76,2.28,59.88,2.41,76.27.65,16.67-1.79,6.24-7.6-42.24-5.89-9.11.32-34.03,5.24-34.03,5.24Z"/>
  <path class="st20" d="M685.75,172.43c-1.69.37-3.55.72-5.6,1.04-4.45.69-9.79,1.25-16.17,1.61-19.18,1.1-49.99,1.75-79.56,1.97-40,.29-77.74-.23-81.39-1.55-6.28-2.26-5.69-5.36-5.69-5.36,0,0,4.67-4.47,26.01-9.2,7.72-1.71,17.62-3.45,30.27-5.03,2.47-.31,5.04-.61,7.72-.9.69-.08,1.38-.15,2.08-.22,60.96-6.44,114.36-.87,126.15,1.63,9.67,2.05,18.27,11.12-3.81,16.01Z"/>
  <path class="st38" d="M813.6,166.51c-21.24,3.36-106.91,3.1-112.97.51-5.41-2.3,12.04-6.73,26.05-9.12,0,0,0,0,0,0,5.01-.86,9.58-1.45,12.51-1.6,11.24-.56,57.28.74,77.26,7.35,3.47,1.15,1.97,2.09-2.85,2.85Z"/>
  <path class="st7" d="M694.76,155.62c-5.23-.25-10.44-.56-15.6-.93-6.86-.49,6.08-2.94,26.25-5.26,8.73-1.01,18.81-1.99,29.24-2.78,9.23-.7,18.72-1.25,27.77-1.53,13.25-.41,23.99-.22,32.71.3,2.12.13,4.12.27,6.01.44,7.28.62,12.89,1.48,17.24,2.34,5.85,1.16,9.41,2.33,11.63,2.97,5.71,1.63-66.15,7.81-135.25,4.46Z"/>
  <path class="st31" d="M894.47,160.74c26.76,2.28,59.88,2.41,76.27.65,16.67-1.79,6.24-7.6-42.24-5.89-9.11.32-34.03,5.24-34.03,5.24Z"/>
  <path class="st27" d="M867.8,142.65c-21.24,3.36-106.91,3.1-112.97.51-5.41-2.3,12.04-6.73,26.05-9.12,0,0,0,0,0,0,5.01-.86,9.58-1.45,12.51-1.6,11.24-.56,57.28.74,77.26,7.35,3.47,1.15,1.97,2.09-2.85,2.85Z"/>
  <path class="st26" d="M829.55,1374.31c-1.14,17.22-1.02,28.21-1.02,28.21,0,0,146.36,126.83,263.73,143.08,13.89,1.93,27.38,2.3,40.17.73,9.26-1.13,18.16-3.29,26.59-6.61,0,0,6.98-143.55-11-176.11-7.24-13.1-30.85-50.84-62.12-89.52-1.7-2.11-3.44-4.23-5.19-6.34-12.97-15.65-27.11-31.24-41.85-45.21-39.51-37.44-83.31-63.19-120.25-47.03-69.74,30.5-85.52,145.04-89.06,198.81Z"/>
  <path class="st13" d="M731.77,1583c6.81-1.65,13.6-3.67,20.32-6.07,8.93-3.2-7.91-19.23-34.19-34.46-11.37-6.59-24.51-13.02-38.08-18.2-12.02-4.58-24.39-8.18-36.18-10.03-17.25-2.7-31.25-1.45-42.61,1.97-2.76.83-5.37,1.79-7.83,2.85-9.48,4.08-16.79,9.67-22.45,15.31-7.62,7.58-12.25,15.24-15.15,19.41-7.44,10.68,86.17,51.1,176.18,29.21Z"/>
  <path class="st9" d="M1638.63,1332.12c24.15,23.82,96.14,58.36,160.12,25.79,2.15-1.09,4.3-2.27,6.43-3.52,2.81-1.65,2.47-5.88-.29-11.69-9.21-19.41-45.3-56.51-80.26-74.22-6.47-3.28-12.9-5.89-19.11-7.61-52.82-14.58-68.75,39.64-75,56.1-1.28,3.37,1.76,8.89,8.11,15.15Z"/>
  <path class="st8" d="M1034,1301.19c12.71,40.91,57.3,95.8,89.82,128.72,14.79,14.97,27.08,25.4,32.76,27.92,109.3,48.48,260.51,42.38,283.95,24.91,18.96-14.13-41.71-175.56-119.19-252.17-16.05-15.87-32.81-28.1-49.75-34.63-133.58-51.49-191.36-7.43-220.55,37.45-7.61,11.7-13.28,23.45-17.84,33.58-4.1,9.11-3.34,20.92.79,34.22Z"/>
  <path class="st0" d="M1629.47,1290.41c-7.47,12.88-39.42,6.42-43.34-.03-3.94-6.47-6.8-23.97,3.12-26.17,9.81-2.18,40.22,26.2,40.22,26.2Z"/>
  <path class="st6" d="M1798.75,1357.91c.64,1.92,1.74,3.61,3.14,4.88,1.29,1.16,4.93,2.32,10.13,3.37,22.48,4.51,74.21,6.85,92.2-2.68,0,0-45.73-20.77-73.34-24.66h0c-3.78-.54-7.22-.75-10.16-.56-7.11.47-12.26,2.14-15.83,4.44-6.49,4.16-7.76,10.38-6.14,15.21Z"/>
  <path class="st10" d="M1676.87,1611.88c2.16,1.96,7.38,3.42,14.77,4.38,38.09,4.91,133.78-3.86,163.79-30.22,0,0-23.34-46.67-70.66-76.68-30.27-19.2-70.34-31.58-120.4-20.6-46.95,10.3-.93,110.93,12.51,123.13Z"/>
  <path class="st16" d="M644.67,1520.37c2.2,2.44,4.62,4.73,7.3,6.82,5.79,4.52,12.76,8.15,21.06,10.55,24.98,7.2,65.11,11.48,103.64,12.86,52.1,1.88,101.26-1.54,106.02-10.15,8.18-14.81,7.41-35.08,7.41-35.08,0,0-6.08-29.27-33.87-60.18-10.05-11.18-22.95-22.58-39.42-32.9-3.21-2.01-6.56-3.98-10.06-5.9-.9-.49-1.8-.98-2.71-1.47-79.41-42.12-148.96-5.66-164.31,10.66-12.59,13.38-23.8,72.78,4.96,104.8Z"/>
  <path class="st28" d="M434.49,1576.74c27.67,21.99,139.26,20.27,147.16,3.36,7.04-15.08-15.69-44.02-33.93-59.68,0,0,0,0,0-.01-6.53-5.61-12.48-9.51-16.29-10.47-14.65-3.68-74.61,4.87-100.64,48.12-4.52,7.51-2.56,13.7,3.71,18.68Z"/>
  <path class="st15" d="M1451.02,1359.82c.05.19.11.37.15.54.65,2.26,1.07,3.54,1.07,3.54,0,0,16.5,44.32,41.54,58.63,2.37,1.36,5.6,2.71,9.51,4.04,36.41,12.35,132.26,22.17,150.59,5.86,11.4-10.14.33-49.04-29.46-86.49-7.86-9.88-17.01-19.66-27.41-28.78-1.81-1.59-3.66-3.16-5.55-4.71-17.57-14.42-38.37-26.85-62.1-34.94-28.72-9.78-48.08-9.84-60.93-4.29h0c-13.14,5.67-19.45,17.2-21.99,30.2-4.17,21.36,1.85,46.66,4.57,56.39Z"/>
</svg>