<?xml version="1.0" encoding="UTF-8"?>
<svg id="Layer_1" xmlns="http://www.w3.org/2000/svg" version="1.1" viewBox="0 0 2001 2001">
  <!-- Generator: Adobe Illustrator 29.9.0, SVG Export Plug-In . SVG Version: 2.1.1 Build 36)  -->
  <defs>
    <style>
      .st0 {
        fill: #585858;
      }

      .st1 {
        fill: #5a5a5a;
      }

      .st2 {
        fill: #2c2c2c;
      }

      .st3 {
        fill: #d7d7d7;
      }

      .st4 {
        fill: #9f9f9f;
      }

      .st5 {
        fill: #fff;
      }

      .st6 {
        fill: #9b9b9b;
      }

      .st7 {
        fill: #676767;
      }

      .st8 {
        fill: #343434;
      }
    </style>
  </defs>
  <path class="st5" d="M353.36,56.93h1.5c1.96,0,1.96-3.19,0-3.19h-1.5c-1.96,0-1.96,3.19,0,3.19"/>
  <path class="st5" d="M451.22,324.54c3.91,0,3.91-6.38,0-6.38s-3.91,6.38,0,6.38"/>
  <path class="st5" d="M1282.36,199.45c3.91,0,3.91-6.38,0-6.38s-3.91,6.38,0,6.38"/>
  <path class="st5" d="M129.01,858.14c3.91,0,3.91-6.38,0-6.38s-3.91,6.38,0,6.38"/>
  <path class="st5" d="M1216.11,756.8c3.92,0,3.92-6.38,0-6.38s-3.91,6.38,0,6.38"/>
  <path class="st5" d="M767.42,810.64c3.91,0,3.91-6.38,0-6.38s-3.91,6.38,0,6.38"/>
  <path class="st5" d="M587.6,1158.05c1,1.06,2.01,2.11,3.01,3.16,2.78,2.9,7.07-1.61,4.29-4.51-1.01-1.05-2.01-2.11-3.02-3.17-2.77-2.91-7.05,1.6-4.29,4.51"/>
  <path class="st5" d="M1613.59,1193.79v3.17c0,4.11,6.06,4.11,6.06,0v-3.17c0-4.11-6.06-4.11-6.06,0"/>
  <path class="st5" d="M1947.88,782.14c3.91,0,3.91-6.38,0-6.38s-3.91,6.38,0,6.38"/>
  <path class="st5" d="M1881.63,316.62c3.91,0,3.91-6.38,0-6.38s-3.92,6.38,0,6.38"/>
  <path class="st5" d="M1183.58,1179.04c1.01-3.17,2.02-6.33,3.03-9.5,1.24-3.91-4.62-5.57-5.85-1.69-1.01,3.16-2.02,6.33-3.03,9.5-1.25,3.91,4.61,5.57,5.85,1.7"/>
  <path class="st5" d="M612.21,1573.09c2-1.06,4.01-2.12,6.02-3.18,1.47-.79,1.89-2.93,1.09-4.36-.88-1.57-2.68-1.93-4.15-1.14-2,1.06-4.01,2.12-6.02,3.18-1.48.78-1.88,2.94-1.09,4.36.88,1.57,2.67,1.92,4.15,1.14"/>
  <path class="st5" d="M144.93,289.01c-1,1.05-2.01,2.11-3.01,3.16-2.77,2.92,1.52,7.43,4.29,4.51,1-1.05,2.01-2.11,3.01-3.16,2.77-2.91-1.52-7.43-4.29-4.51"/>
  <path class="st5" d="M189.23,341.96h3.01c3.91,0,3.91-6.38,0-6.38h-3.01c-3.91,0-3.91,6.38,0,6.38"/>
  <path class="st5" d="M220.21,266.84c-1,1.06-2,2.11-3.01,3.17-2.77,2.9,1.52,7.41,4.29,4.51,1-1.06,2.01-2.11,3.01-3.17,2.77-2.91-1.52-7.42-4.29-4.51"/>
  <path class="st5" d="M1152.87,177.28c3.91,0,3.91-6.38,0-6.38s-3.91,6.38,0,6.38"/>
  <path class="st5" d="M1584.36,105.33c-.99,1.06-2,2.11-3.01,3.17-2.76,2.92,1.53,7.43,4.3,4.51,1-1.05,2.01-2.11,3.01-3.17,2.75-2.92-1.54-7.43-4.3-4.51"/>
  <path class="st5" d="M1417.87,611.13c3.92,0,3.92-6.38,0-6.38s-3.91,6.38,0,6.38"/>
  <path class="st5" d="M1628.67,763.13c3.92,0,3.92-6.38,0-6.38s-3.91,6.38,0,6.38"/>
  <path class="st5" d="M1276.34,1073.48c3.92,0,3.92-6.38,0-6.38s-3.91,6.38,0,6.38"/>
  <path class="st5" d="M1170.94,1456.66c3.92,0,3.92-6.38,0-6.38s-3.91,6.38,0,6.38"/>
  <path class="st5" d="M210.32,1459.82c3.91,0,3.91-6.38,0-6.38s-3.91,6.38,0,6.38"/>
  <path class="st5" d="M189.23,1668.83c3.91,0,3.91-6.38,0-6.38s-3.91,6.38,0,6.38"/>
  <path class="st5" d="M26.62,1482c3.91,0,3.91-6.38,0-6.38s-3.91,6.38,0,6.38"/>
  <path class="st5" d="M267.53,590.53c1.96,0,1.96-3.19,0-3.19s-1.95,3.19,0,3.19"/>
  <path class="st5" d="M574.69,546.2c1.96,0,1.96-3.19,0-3.19s-1.96,3.19,0,3.19"/>
  <path class="st5" d="M838.17,341.93v3.17c0,2.06,3.04,2.06,3.04,0v-3.17c0-2.06-3.04-2.06-3.04,0"/>
  <path class="st5" d="M1312.47,384.67h-3.01c-1.95,0-1.95,3.19,0,3.19h3.01c1.96,0,1.96-3.19,0-3.19"/>
  <path class="st5" d="M1410.78,998.58c1,1.06,2.01,2.11,3.01,3.17,1.38,1.46,3.53-.8,2.14-2.26-1-1.05-2-2.11-3.01-3.16-1.38-1.46-3.52.8-2.14,2.25"/>
  <path class="st5" d="M1676.85,989.55c1.96,0,1.96-3.19,0-3.19s-1.95,3.19,0,3.19"/>
  <path class="st5" d="M1617.69,1720.61c1.01-1.06,2.02-2.11,3.02-3.18,1.39-1.45-.76-3.71-2.14-2.25-1.01,1.06-2.02,2.12-3.02,3.18-1.39,1.46.76,3.71,2.14,2.25"/>
  <path class="st5" d="M1732.99,1423.84c-1,1.05-2,2.11-3,3.16-1.39,1.45.75,3.71,2.14,2.25,1-1.05,2.01-2.1,3.01-3.16,1.38-1.45-.76-3.71-2.15-2.25"/>
  <path class="st5" d="M1487.14,1391.73c1.96,0,1.96-3.19,0-3.19s-1.96,3.19,0,3.19"/>
  <path class="st5" d="M928.96,1224.34c-1,1.05-2,2.11-3.01,3.16-1.39,1.45.75,3.7,2.14,2.26,1.01-1.05,2.01-2.11,3.01-3.17,1.39-1.45-.76-3.71-2.14-2.25"/>
  <path class="st5" d="M701.17,942.04c1.96,0,1.96-3.19,0-3.19s-1.96,3.19,0,3.19"/>
  <path class="st5" d="M463.27,837.54c1.96,0,1.96-3.19,0-3.19s-1.96,3.19,0,3.19"/>
  <path class="st5" d="M514.46,951.54c1.96,0,1.96-3.19,0-3.19s-1.96,3.19,0,3.19"/>
  <path class="st5" d="M927.02,946.81c3.91,0,3.91-6.38,0-6.38s-3.91,6.38,0,6.38"/>
  <path class="st5" d="M933.05,873.97c3.91,0,3.91-6.38,0-6.38s-3.91,6.38,0,6.38"/>
  <path class="st5" d="M731.29,943.64c3.91,0,3.91-6.38,0-6.38s-3.91,6.38,0,6.38"/>
  <path class="st5" d="M451.22,791.64c3.91,0,3.91-6.38,0-6.38s-3.91,6.38,0,6.38"/>
  <path class="st5" d="M601.8,655.47c3.91,0,3.91-6.38,0-6.38s-3.91,6.38,0,6.38"/>
  <path class="st5" d="M737.3,576.3c3.91,0,3.91-6.38,0-6.38s-3.91,6.38,0,6.38"/>
  <path class="st5" d="M731.29,446.46c3.91,0,3.91-6.38,0-6.38s-3.91,6.38,0,6.38"/>
  <path class="st5" d="M502.39,487.6v3.17c0,4.12,6.07,4.12,6.07,0v-3.17c0-4.11-6.07-4.11-6.07,0"/>
  <path class="st5" d="M306.68,509.79h3.01c3.91,0,3.91-6.38,0-6.38h-3.01c-3.91,0-3.91,6.38,0,6.38"/>
  <path class="st5" d="M584.59,132.01c1,1.06,2.01,2.11,3.01,3.17,2.77,2.91,7.06-1.6,4.29-4.51-1-1.06-2.01-2.11-3.01-3.17-2.77-2.91-7.06,1.6-4.29,4.51"/>
  <path class="st5" d="M1041.43,3.09v3.16c0,4.12,6.07,4.12,6.07,0v-3.16c0-4.12-6.07-4.12-6.07,0"/>
  <path class="st5" d="M1475.09,310.29h3.01c3.91,0,3.91-6.38,0-6.38h-3.01c-3.91,0-3.91,6.38,0,6.38"/>
  <path class="st5" d="M1842.48,174.12c3.91,0,3.91-6.38,0-6.38s-3.91,6.38,0,6.38"/>
  <path class="st5" d="M1990.03,91.78c3.91,0,3.91-6.38,0-6.38s-3.92,6.38,0,6.38"/>
  <path class="st5" d="M1794.3,493.96c3.91,0,3.91-6.38,0-6.38s-3.92,6.38,0,6.38"/>
  <path class="st5" d="M1554.25,546.86c1.01,1.05,2.01,2.11,3.01,3.16,2.77,2.92,7.06-1.59,4.29-4.51-1-1.05-2-2.11-3.01-3.16-2.77-2.91-7.06,1.6-4.29,4.51"/>
  <path class="st5" d="M1604.58,414.79c3.91,0,3.91-6.38,0-6.38s-3.92,6.38,0,6.38"/>
  <path class="st5" d="M1110.71,560.46c3.91,0,3.91-6.38,0-6.38s-3.92,6.38,0,6.38"/>
  <path class="st5" d="M914.98,592.13c3.91,0,3.91-6.38,0-6.38s-3.91,6.38,0,6.38"/>
  <path class="st5" d="M348.82,956.29v3.17c0,4.11,6.07,4.11,6.07,0v-3.17c0-4.12-6.07-4.12-6.07,0"/>
  <path class="st5" d="M451.22,1006.98h3.02c3.91,0,3.91-6.38,0-6.38h-3.02c-3.91,0-3.91,6.38,0,6.38"/>
  <path class="st5" d="M744.19,1308.71c-1,1.05-2,2.11-3.01,3.16-2.77,2.91,1.52,7.43,4.29,4.52,1-1.06,2-2.12,3.01-3.17,2.78-2.91-1.51-7.41-4.29-4.51"/>
  <path class="st5" d="M806.57,1190.65c3.91,0,3.91-6.38,0-6.38s-3.91,6.38,0,6.38"/>
  <path class="st5" d="M1101.68,1114.64c3.91,0,3.91-6.38,0-6.38s-3.91,6.38,0,6.38"/>
  <path class="st5" d="M1176.97,997.47c3.91,0,3.91-6.38,0-6.38s-3.92,6.38,0,6.38"/>
  <path class="st5" d="M1113.71,899.28v3.18c0,4.11,6.06,4.11,6.06,0v-3.18c0-4.11-6.06-4.11-6.06,0"/>
  <path class="st5" d="M1454.01,889.8c3.91,0,3.91-6.38,0-6.38s-3.92,6.38,0,6.38"/>
  <path class="st5" d="M1749.13,1063.98h3c3.92,0,3.92-6.38,0-6.38h-3c-3.92,0-3.92,6.38,0,6.38"/>
  <path class="st5" d="M1333.58,1592.81v-3.18c0-4.12-6.07-4.12-6.07,0v3.18c0,4.11,6.07,4.11,6.07,0"/>
  <path class="st5" d="M1140.83,1748h3.01c3.91,0,3.91-6.38,0-6.38h-3.01c-3.91,0-3.91,6.38,0,6.38"/>
  <path class="st5" d="M803.55,1729h3.01c3.91,0,3.91-6.38,0-6.38h-3.01c-3.91,0-3.91,6.38,0,6.38"/>
  <path class="st5" d="M863.78,1491.49h3.01c3.91,0,3.91-6.38,0-6.38h-3.01c-3.91,0-3.91,6.38,0,6.38"/>
  <path class="st5" d="M466.28,1326.82c3.91,0,3.91-6.38,0-6.38s-3.91,6.38,0,6.38"/>
  <path class="st5" d="M267.53,1184.32c3.91,0,3.91-6.38,0-6.38s-3.91,6.38,0,6.38"/>
  <path class="st5" d="M135.03,634.89c5.87,0,5.87-9.57,0-9.57s-5.87,9.57,0,9.57"/>
  <path class="st5" d="M377.41,367.26v3.17c0,2.61,2.07,4.79,4.55,4.79s4.55-2.18,4.55-4.79v-3.17c0-2.6-2.07-4.78-4.55-4.78s-4.55,2.18-4.55,4.78"/>
  <path class="st5" d="M626.45,514.21c2.01,1.05,4.02,2.11,6.02,3.17,2.21,1.18,4.92.64,6.23-1.71,1.2-2.15.58-5.37-1.63-6.55-2-1.06-4.01-2.12-6.02-3.18-2.22-1.16-4.91-.64-6.23,1.72-1.19,2.14-.59,5.38,1.63,6.55"/>
  <path class="st5" d="M384.97,758.39c5.87,0,5.87-9.57,0-9.57s-5.87,9.57,0,9.57"/>
  <path class="st5" d="M631.91,780.57c5.87,0,5.87-9.57,0-9.57s-5.87,9.57,0,9.57"/>
  <path class="st5" d="M1071.56,372.05c5.87,0,5.87-9.57,0-9.57s-5.87,9.57,0,9.57"/>
  <path class="st5" d="M1294.4,286.55c5.87,0,5.87-9.57,0-9.57s-5.87,9.57,0,9.57"/>
  <path class="st5" d="M1520.05,481.05c-1,1.06-2.01,2.11-3.01,3.17-1.74,1.85-1.76,4.92,0,6.77,1.75,1.83,4.69,1.85,6.44,0,1-1.06,2.01-2.11,3.01-3.17,1.75-1.84,1.75-4.92,0-6.77-1.76-1.84-4.68-1.84-6.44,0"/>
  <path class="st5" d="M1688.9,372.05c5.87,0,5.87-9.57,0-9.57s-5.87,9.57,0,9.57"/>
  <path class="st5" d="M1782.25,685.56c5.87,0,5.87-9.57,0-9.57s-5.86,9.57,0,9.57"/>
  <path class="st5" d="M1658.79,961.07c5.87,0,5.87-9.57,0-9.57s-5.87,9.57,0,9.57"/>
  <path class="st5" d="M1413.33,1263.46v3.16c0,2.61,2.07,4.79,4.54,4.79s4.56-2.18,4.56-4.79v-3.16c0-2.61-2.07-4.79-4.56-4.79s-4.54,2.18-4.54,4.79"/>
  <path class="st5" d="M541.52,1336.3v1.73c0,8.23,12.13,8.23,12.13,0v-1.73c0-8.23-12.13-8.23-12.13,0v1.73c0,8.23,12.13,8.23,12.13,0v-1.73c0-8.23-12.13-8.23-12.13,0"/>
  <path class="st5" d="M722.25,1472.52c7.82,0,7.82-12.76,0-12.76s-7.82,12.76,0,12.76"/>
  <path class="st5" d="M1535.31,1418.68c7.83,0,7.83-12.76,0-12.76s-7.82,12.76,0,12.76"/>
  <path class="st5" d="M908.95,227.97c7.82,0,7.82-12.76,0-12.76s-7.82,12.76,0,12.76"/>
  <path class="st5" d="M1127.5,685.77c-1,1.05-2.01,2.11-3.01,3.16-2.33,2.46-2.34,6.56,0,9.02s6.25,2.47,8.58,0c1-1.05,2.01-2.11,3.01-3.16,2.33-2.47,2.34-6.56,0-9.02-2.33-2.46-6.25-2.47-8.58,0"/>
  <path class="st5" d="M592.71,892.95v3.16c0,3.48,2.76,6.38,6.07,6.38s6.07-2.9,6.07-6.38v-3.16c0-3.48-2.76-6.38-6.07-6.38s-6.07,2.9-6.07,6.38"/>
  <path class="st5" d="M1535.31,649.15c7.83,0,7.83-12.76,0-12.76s-7.82,12.76,0,12.76"/>
  <path class="st5" d="M1902.71,588.98c7.82,0,7.82-12.76,0-12.76s-7.83,12.76,0,12.76"/>
  <path class="st6" d="M264.52,1786c3.91,0,3.91-6.38,0-6.38s-3.91,6.38,0,6.38"/>
  <path class="st6" d="M415.09,1773.33c3.91,0,3.91-6.38,0-6.38s-3.91,6.38,0,6.38"/>
  <path class="st6" d="M538.55,1855.67c3.91,0,3.91-6.38,0-6.38s-3.91,6.38,0,6.38"/>
  <path class="st6" d="M457.25,1995c3.91,0,3.91-6.38,0-6.38s-3.91,6.38,0,6.38"/>
  <path class="st6" d="M321.73,1919.01c3.91,0,3.91-6.38,0-6.38s-3.91,6.38,0,6.38"/>
  <path class="st6" d="M363.89,1833.5c3.91,0,3.91-6.38,0-6.38s-3.91,6.38,0,6.38"/>
  <path class="st6" d="M321.73,1763.84c3.91,0,3.91-6.38,0-6.38s-3.91,6.38,0,6.38"/>
  <path class="st6" d="M47.7,1729c3.91,0,3.91-6.38,0-6.38s-3.91,6.38,0,6.38"/>
  <path class="st6" d="M11.56,1298.32c3.91,0,3.91-6.38,0-6.38s-3.91,6.38,0,6.38"/>
  <path class="st6" d="M86.85,1250.82c3.91,0,3.91-6.38,0-6.38s-3.91,6.38,0,6.38"/>
  <path class="st6" d="M147.08,1215.98c3.91,0,3.91-6.38,0-6.38s-3.91,6.38,0,6.38"/>
  <path class="st6" d="M110.94,1136.81c3.91,0,3.91-6.38,0-6.38s-3.91,6.38,0,6.38"/>
  <path class="st6" d="M174.18,1019.64c3.91,0,3.91-6.38,0-6.38s-3.91,6.38,0,6.38"/>
  <path class="st6" d="M1823.55,1129.55c1-1.06,2.01-2.12,3.01-3.18,2.75-2.92-1.53-7.43-4.29-4.51-1,1.06-2.01,2.11-3.01,3.17-2.76,2.92,1.53,7.43,4.29,4.52"/>
  <path class="st6" d="M1848.5,1228.65h3.01c3.92,0,3.92-6.38,0-6.38h-3.01c-3.91,0-3.91,6.38,0,6.38"/>
  <path class="st6" d="M1923.78,1222.31h3.01c3.92,0,3.92-6.38,0-6.38h-3.01c-3.91,0-3.91,6.38,0,6.38"/>
  <path class="st6" d="M1953.9,1105.14c3.92,0,3.92-6.38,0-6.38s-3.91,6.38,0,6.38"/>
  <path class="st6" d="M1950.89,934.14c3.91,0,3.91-6.38,0-6.38s-3.91,6.38,0,6.38"/>
  <path class="st6" d="M1541.34,227.95c3.92,0,3.92-6.38,0-6.38s-3.91,6.38,0,6.38"/>
  <path class="st6" d="M827.64,63.28c3.91,0,3.91-6.38,0-6.38s-3.91,6.38,0,6.38"/>
  <path class="st6" d="M752.36,183.62h3.01c3.91,0,3.91-6.38,0-6.38h-3.01c-3.91,0-3.91,6.38,0,6.38"/>
  <path class="st6" d="M427.13,170.95c3.91,0,3.91-6.38,0-6.38s-3.91,6.38,0,6.38"/>
  <path class="st6" d="M449.08,81.34c1.01,1.06,2.01,2.11,3.01,3.17,2.77,2.92,7.06-1.6,4.29-4.51-1-1.06-2.01-2.11-3.02-3.17-2.77-2.91-7.06,1.61-4.29,4.51"/>
  <path class="st6" d="M116.96,117.11c3.91,0,3.91-6.38,0-6.38s-3.91,6.38,0,6.38"/>
  <path class="st6" d="M273.55,167.78c3.91,0,3.91-6.38,0-6.38s-3.91,6.38,0,6.38"/>
  <path class="st6" d="M625.88,335.62c3.91,0,3.91-6.38,0-6.38s-3.91,6.38,0,6.38"/>
  <path class="st6" d="M634.92,246.95c3.91,0,3.91-6.38,0-6.38s-3.91,6.38,0,6.38"/>
  <path class="st6" d="M1068.53,281.76v3.17c0,4.11,6.07,4.11,6.07,0v-3.17c0-4.11-6.07-4.11-6.07,0"/>
  <path class="st6" d="M1186,345.12c3.91,0,3.91-6.38,0-6.38s-3.91,6.38,0,6.38"/>
  <path class="st6" d="M1273.33,449.62c3.91,0,3.91-6.38,0-6.38s-3.92,6.38,0,6.38"/>
  <path class="st6" d="M1357.62,367.26v3.17c0,4.12,6.07,4.12,6.07,0v-3.17c0-4.11-6.07-4.11-6.07,0"/>
  <path class="st6" d="M1387.76,265.95c3.91,0,3.91-6.38,0-6.38s-3.91,6.38,0,6.38"/>
  <path class="st6" d="M1429.92,199.45h3.01c3.91,0,3.91-6.38,0-6.38h-3.01c-3.91,0-3.91,6.38,0,6.38"/>
  <path class="st6" d="M1649.76,212.12c3.91,0,3.91-6.38,0-6.38s-3.92,6.38,0,6.38"/>
  <path class="st6" d="M1592.53,297.62c3.91,0,3.91-6.38,0-6.38s-3.91,6.38,0,6.38"/>
  <path class="st6" d="M1661.8,500.29c3.91,0,3.91-6.38,0-6.38s-3.91,6.38,0,6.38"/>
  <path class="st6" d="M1749.99,536.02c-1,1.05-2.01,2.11-3.01,3.16-2.77,2.91,1.52,7.42,4.29,4.51,1-1.05,2.01-2.1,3.01-3.16,2.76-2.93-1.53-7.44-4.29-4.51"/>
  <path class="st6" d="M1195.04,1589.66c3.91,0,3.91-6.38,0-6.38s-3.92,6.38,0,6.38"/>
  <path class="st6" d="M1101.68,1605.5c3.91,0,3.91-6.38,0-6.38s-3.91,6.38,0,6.38"/>
  <path class="st6" d="M884.86,1789.17c3.91,0,3.91-6.38,0-6.38s-3.91,6.38,0,6.38"/>
  <path class="st6" d="M836.66,1874.65v3.17c0,4.11,6.07,4.11,6.07,0v-3.17c0-4.11-6.07-4.11-6.07,0"/>
  <path class="st6" d="M801.41,1834.39c-1,1.05-2.01,2.11-3.01,3.16-2.77,2.91,1.52,7.42,4.29,4.52,1-1.05,2.01-2.11,3.01-3.17,2.77-2.91-1.52-7.41-4.29-4.51"/>
  <path class="st6" d="M818.61,1801.83c3.91,0,3.91-6.38,0-6.38s-3.91,6.38,0,6.38"/>
  <path class="st6" d="M737.28,1792.31v3.17c0,4.11,6.07,4.11,6.07,0v-3.17c0-4.11-6.07-4.11-6.07,0"/>
  <path class="st6" d="M742.46,1740.73c1-1.05,2.01-2.11,3.01-3.16,2.77-2.91-1.52-7.42-4.29-4.51-1,1.05-2.01,2.11-3.01,3.16-2.77,2.91,1.52,7.41,4.29,4.51"/>
  <path class="st6" d="M839.69,1675.16h3.02c3.91,0,3.91-6.38,0-6.38h-3.02c-3.91,0-3.91,6.38,0,6.38"/>
  <path class="st6" d="M893.9,1729c3.91,0,3.91-6.38,0-6.38s-3.91,6.38,0,6.38"/>
  <path class="st6" d="M1231.17,1858.84c3.91,0,3.91-6.38,0-6.38s-3.91,6.38,0,6.38"/>
  <path class="st6" d="M1330.55,1798.66c3.91,0,3.91-6.38,0-6.38s-3.91,6.38,0,6.38"/>
  <path class="st6" d="M1387.76,1719.5c3.91,0,3.91-6.38,0-6.38s-3.91,6.38,0,6.38"/>
  <path class="st6" d="M905.94,1570.66c3.91,0,3.91-6.38,0-6.38s-3.91,6.38,0,6.38"/>
  <path class="st6" d="M969.18,1469.33c3.91,0,3.91-6.38,0-6.38s-3.91,6.38,0,6.38"/>
  <path class="st6" d="M896.91,1364.82c3.91,0,3.91-6.38,0-6.38s-3.91,6.38,0,6.38"/>
  <path class="st6" d="M521.35,1476.55c-1.01,1.05-2.01,2.11-3.01,3.16-2.77,2.91,1.52,7.42,4.29,4.52,1-1.05,2-2.11,3.01-3.17,2.77-2.91-1.52-7.41-4.29-4.51"/>
  <path class="st6" d="M363.89,1589.66c3.91,0,3.91-6.38,0-6.38s-3.91,6.38,0,6.38"/>
  <path class="st6" d="M331.64,1455.73c1,1.06,2.01,2.11,3.01,3.16,2.77,2.91,7.06-1.61,4.29-4.52-1-1.05-2.01-2.1-3.01-3.16-2.77-2.91-7.06,1.6-4.29,4.51"/>
  <path class="st6" d="M327.76,1361.65c3.91,0,3.91-6.38,0-6.38s-3.91,6.38,0,6.38"/>
  <path class="st6" d="M1976.67,1614.91c2.01-1.07,4.01-2.14,6.01-3.22,1.47-.79,1.89-2.93,1.09-4.36-.87-1.56-2.68-1.93-4.15-1.14-2.01,1.07-4.01,2.14-6.01,3.21-1.47.79-1.89,2.93-1.09,4.36.88,1.57,2.68,1.93,4.15,1.14"/>
  <path class="st6" d="M1869.58,1494.66h3.01c3.91,0,3.91-6.38,0-6.38h-3.01c-3.91,0-3.91,6.38,0,6.38"/>
  <path class="st6" d="M1776.21,1599.13v3.18c0,4.12,6.07,4.12,6.07,0v-3.18c0-4.11-6.07-4.11-6.07,0"/>
  <path class="st6" d="M1619.64,1538.99c3.91,0,3.91-6.38,0-6.38s-3.91,6.38,0,6.38"/>
  <path class="st6" d="M1893.67,1336.32c3.91,0,3.91-6.38,0-6.38s-3.91,6.38,0,6.38"/>
  <path class="st6" d="M1700.92,1263.46v3.16c0,4.12,6.07,4.12,6.07,0v-3.16c0-4.12-6.07-4.12-6.07,0"/>
  <path class="st6" d="M1628.67,1073.48c3.92,0,3.92-6.38,0-6.38s-3.91,6.38,0,6.38"/>
  <path class="st6" d="M1830.44,918.31c3.91,0,3.91-6.38,0-6.38s-3.92,6.38,0,6.38"/>
  <path class="st6" d="M1804.19,802.02c-1,1.06-2,2.11-3,3.17-2.77,2.92,1.52,7.43,4.29,4.51,1-1.06,2-2.11,3-3.17,2.76-2.92-1.53-7.43-4.29-4.51"/>
  <path class="st6" d="M1270.32,601.63c3.91,0,3.91-6.38,0-6.38s-3.92,6.38,0,6.38"/>
  <path class="st6" d="M1336.57,544.63c3.91,0,3.91-6.38,0-6.38s-3.91,6.38,0,6.38"/>
  <path class="st6" d="M824.63,430.62c3.91,0,3.91-6.38,0-6.38s-3.91,6.38,0,6.38"/>
  <path class="st6" d="M899.91,487.63c3.91,0,3.91-6.38,0-6.38s-3.91,6.38,0,6.38"/>
  <path class="st6" d="M198.25,649.11v3.17c0,4.11,6.07,4.11,6.07,0v-3.17c0-4.11-6.07-4.11-6.07,0"/>
  <path class="st6" d="M198.27,750.47c3.91,0,3.91-6.38,0-6.38s-3.91,6.38,0,6.38"/>
  <path class="st6" d="M360.88,664.97c3.91,0,3.91-6.38,0-6.38s-3.91,6.38,0,6.38"/>
  <path class="st6" d="M205.16,539.18c-1,1.06-2.01,2.11-3.02,3.17-2.77,2.9,1.52,7.42,4.29,4.51,1-1.06,2.01-2.11,3.01-3.17,2.77-2.91-1.52-7.42-4.29-4.51"/>
  <path class="st6" d="M104.91,525.63c3.91,0,3.91-6.38,0-6.38s-3.91,6.38,0,6.38"/>
  <path class="st0" d="M23.61,634.89c5.87,0,5.87-9.57,0-9.57s-5.87,9.57,0,9.57"/>
  <path class="st0" d="M46.16,459.1v3.17c0,2.61,2.07,4.78,4.55,4.78s4.55-2.17,4.55-4.78v-3.17c0-2.61-2.07-4.78-4.55-4.78s-4.55,2.17-4.55,4.78"/>
  <path class="st0" d="M14.57,1024.41c5.87,0,5.87-9.57,0-9.57s-5.87,9.57,0,9.57"/>
  <path class="st0" d="M186.22,970.57c5.87,0,5.87-9.57,0-9.57s-5.87,9.57,0,9.57"/>
  <path class="st0" d="M228.38,859.73c5.87,0,5.87-9.57,0-9.57s-5.87,9.57,0,9.57"/>
  <path class="st0" d="M436.38,937.5c1-1.06,2.01-2.11,3.01-3.17,1.75-1.85,1.76-4.92,0-6.77-1.75-1.84-4.68-1.84-6.43,0-1,1.06-2,2.12-3.01,3.17-1.76,1.84-1.75,4.93,0,6.77,1.76,1.84,4.68,1.84,6.44,0"/>
  <path class="st0" d="M342.81,837.57c5.87,0,5.87-9.57,0-9.57s-5.87,9.57,0,9.57"/>
  <path class="st0" d="M460.26,647.55h3.01c2.48,0,4.55-2.17,4.55-4.78s-2.07-4.79-4.55-4.79h-3.01c-2.48,0-4.55,2.18-4.55,4.79s2.07,4.78,4.55,4.78"/>
  <path class="st0" d="M487.36,733.06c5.87,0,5.87-9.57,0-9.57s-5.87,9.57,0,9.57"/>
  <path class="st0" d="M743.33,672.89c5.87,0,5.87-9.57,0-9.57s-5.87,9.57,0,9.57"/>
  <path class="st0" d="M616.85,1280.91h3.02c2.48,0,4.55-2.18,4.55-4.79s-2.07-4.79-4.55-4.79h-3.02c-2.48,0-4.55,2.18-4.55,4.79s2.07,4.79,4.55,4.79"/>
  <path class="st0" d="M1038.44,1249.24h3.01c2.48,0,4.55-2.18,4.55-4.79s-2.07-4.79-4.55-4.79h-3.01c-2.48,0-4.55,2.18-4.55,4.79s2.07,4.79,4.55,4.79"/>
  <path class="st0" d="M1246.02,1294.91c-1,1.05-2,2.11-3.01,3.16-1.76,1.84-1.75,4.93,0,6.77,1.76,1.84,4.68,1.84,6.44,0,1-1.05,2-2.11,3.01-3.16,1.75-1.84,1.75-4.93,0-6.77-1.76-1.84-4.68-1.84-6.44,0"/>
  <path class="st0" d="M1454.01,1125.74c5.86,0,5.86-9.57,0-9.57s-5.87,9.57,0,9.57"/>
  <path class="st0" d="M1521.73,1022.79v3.17c0,2.61,2.07,4.79,4.55,4.79s4.55-2.18,4.55-4.79v-3.17c0-2.61-2.07-4.79-4.55-4.79s-4.55,2.18-4.55,4.79"/>
  <path class="st0" d="M1881.42,1057.4c-1,1.06-2.01,2.11-3.01,3.16-1.75,1.85-1.76,4.92,0,6.77,1.75,1.84,4.69,1.85,6.43,0,1-1.06,2.01-2.11,3.01-3.17,1.75-1.84,1.76-4.92,0-6.77-1.75-1.84-4.68-1.85-6.43,0"/>
  <path class="st0" d="M1971.97,1002.24c5.87,0,5.87-9.57,0-9.57s-5.87,9.57,0,9.57"/>
  <path class="st0" d="M1703.96,1670.43c5.86,0,5.86-9.57,0-9.57s-5.87,9.57,0,9.57"/>
  <path class="st0" d="M1535.31,1854.1h3.02c2.48,0,4.55-2.18,4.55-4.79s-2.07-4.79-4.55-4.79h-3.02c-2.48,0-4.55,2.18-4.55,4.79s2.07,4.79,4.55,4.79"/>
  <path class="st0" d="M1369.7,1917.43c5.86,0,5.86-9.57,0-9.57s-5.87,9.57,0,9.57"/>
  <path class="st0" d="M1167.93,1983.93h3.01c2.49,0,4.56-2.18,4.56-4.79s-2.07-4.79-4.56-4.79h-3.01c-2.48,0-4.55,2.18-4.55,4.79s2.07,4.79,4.55,4.79"/>
  <path class="st0" d="M1140.83,1882.6c5.87,0,5.87-9.57,0-9.57s-5.87,9.57,0,9.57"/>
  <path class="st0" d="M1089.64,1854.1c5.87,0,5.87-9.57,0-9.57s-5.87,9.57,0,9.57"/>
  <path class="st0" d="M1213.09,201.04c5.87,0,5.87-9.57,0-9.57s-5.87,9.57,0,9.57"/>
  <path class="st0" d="M1062.53,153.54c5.87,0,5.87-9.57,0-9.57s-5.87,9.57,0,9.57"/>
  <path class="st0" d="M942.08,147.21c5.87,0,5.87-9.57,0-9.57s-5.87,9.57,0,9.57"/>
  <path class="st0" d="M821.83,266.14c1-1.05,2.01-2.11,3.02-3.16,1.75-1.84,1.75-4.92,0-6.77-1.75-1.84-4.68-1.84-6.44,0-1,1.06-2.01,2.11-3.02,3.17-1.75,1.84-1.75,4.92,0,6.76,1.76,1.85,4.68,1.84,6.44,0"/>
  <path class="st0" d="M914.77,306.88c-1,1.06-2.01,2.11-3.01,3.17-1.75,1.84-1.76,4.92,0,6.76,1.75,1.84,4.68,1.85,6.43,0,1-1.05,2-2.11,3.01-3.16,1.75-1.85,1.75-4.93,0-6.77s-4.68-1.84-6.43,0"/>
  <path class="st0" d="M1005.32,349.88c5.87,0,5.87-9.57,0-9.57s-5.87,9.57,0,9.57"/>
  <path class="st0" d="M939.07,416.38c5.87,0,5.87-9.57,0-9.57s-5.87,9.57,0,9.57"/>
  <path class="st0" d="M1042.92,493.94v3.16c0,2.61,2.07,4.79,4.55,4.79s4.55-2.18,4.55-4.79v-3.16c0-2.61-2.07-4.79-4.55-4.79s-4.55,2.18-4.55,4.79"/>
  <path class="st0" d="M1149.86,460.72c5.87,0,5.87-9.57,0-9.57s-5.87,9.57,0,9.57"/>
  <path class="st0" d="M1137.82,416.38c5.86,0,5.86-9.57,0-9.57s-5.87,9.57,0,9.57"/>
  <path class="st0" d="M1215.91,531.72c-1,1.06-2.01,2.11-3.02,3.17-1.74,1.84-1.75,4.92,0,6.77,1.76,1.84,4.69,1.84,6.44,0,1-1.06,2.01-2.12,3.01-3.17,1.75-1.85,1.76-4.92,0-6.77-1.75-1.84-4.68-1.85-6.43,0"/>
  <path class="st0" d="M1354.64,482.89c5.87,0,5.87-9.58,0-9.58s-5.87,9.58,0,9.58"/>
  <path class="st0" d="M1441.96,562.06c5.87,0,5.87-9.57,0-9.57s-5.87,9.57,0,9.57"/>
  <path class="st0" d="M1595.54,634.89h3.02c2.47,0,4.55-2.17,4.55-4.78s-2.08-4.79-4.55-4.79h-3.02c-2.48,0-4.55,2.18-4.55,4.79s2.07,4.78,4.55,4.78"/>
  <path class="st0" d="M1877.08,421.1v3.17c0,2.6,2.07,4.78,4.55,4.78s4.55-2.18,4.55-4.78v-3.17c0-2.61-2.07-4.79-4.55-4.79s-4.55,2.18-4.55,4.79"/>
  <path class="st0" d="M1289.85,778.95v1.74c0,6.17,9.1,6.17,9.1,0v-1.74c0-6.17-9.1-6.17-9.1,0v1.74c0,6.17,9.1,6.17,9.1,0v-1.74c0-6.17-9.1-6.17-9.1,0"/>
  <path class="st0" d="M1451,752.06c5.87,0,5.87-9.57,0-9.57s-5.86,9.57,0,9.57"/>
  <path class="st0" d="M580.71,1717.93c5.87,0,5.87-9.57,0-9.57s-5.87,9.57,0,9.57"/>
  <path class="st0" d="M619.86,1812.93c5.87,0,5.87-9.57,0-9.57s-5.87,9.57,0,9.57"/>
  <path class="st0" d="M696.62,1880.98v3.17c0,2.61,2.07,4.79,4.55,4.79s4.55-2.18,4.55-4.79v-3.17c0-2.61-2.07-4.79-4.55-4.79s-4.55,2.18-4.55,4.79"/>
  <path class="st0" d="M204.29,1838.27c5.87,0,5.87-9.57,0-9.57s-5.87,9.57,0,9.57"/>
  <path class="st0" d="M129.01,1790.77c5.87,0,5.87-9.57,0-9.57s-5.87,9.57,0,9.57"/>
  <path class="st0" d="M86.85,1597.6c5.87,0,5.87-9.57,0-9.57s-5.87,9.57,0,9.57"/>
  <path class="st0" d="M246.25,1574.02c1,1.05,2,2.11,3.01,3.16,1.76,1.84,4.68,1.84,6.44,0,1.75-1.84,1.75-4.93,0-6.77-1.01-1.05-2.01-2.11-3.01-3.16-1.75-1.84-4.68-1.84-6.43,0-1.75,1.84-1.75,4.93,0,6.77"/>
  <path class="st0" d="M243.44,1641.93c5.87,0,5.87-9.57,0-9.57s-5.87,9.57,0,9.57"/>
  <path class="st0" d="M168.15,1572.25c5.87,0,5.87-9.57,0-9.57s-5.87,9.57,0,9.57"/>
  <path class="st0" d="M125.99,1341.09c5.87,0,5.87-9.57,0-9.57s-5.87,9.57,0,9.57"/>
  <path class="st0" d="M252.47,1277.74c5.87,0,5.87-9.57,0-9.57s-5.87,9.57,0,9.57"/>
  <path class="st0" d="M1478.1,1607.09h3.01c2.48,0,4.55-2.18,4.55-4.79s-2.07-4.79-4.55-4.79h-3.01c-2.48,0-4.55,2.18-4.55,4.79s2.07,4.79,4.55,4.79"/>
  <path class="st0" d="M1547.36,1686.26c5.87,0,5.87-9.57,0-9.57s-5.86,9.57,0,9.57"/>
  <path class="st0" d="M1649.76,1679.93c5.86,0,5.86-9.57,0-9.57s-5.87,9.57,0,9.57"/>
  <path class="st0" d="M1706.97,1588.09c5.87,0,5.87-9.57,0-9.57s-5.87,9.57,0,9.57"/>
  <path class="st0" d="M1878.62,680.82c7.82,0,7.82-12.76,0-12.76s-7.83,12.76,0,12.76"/>
  <path class="st0" d="M1716,835.99c7.83,0,7.83-12.76,0-12.76s-7.83,12.76,0,12.76"/>
  <path class="st0" d="M282.59,744.16c7.82,0,7.82-12.76,0-12.76s-7.82,12.76,0,12.76"/>
  <path class="st0" d="M345.79,560.44v3.17c0,3.48,2.76,6.38,6.07,6.38s6.07-2.9,6.07-6.38v-3.17c0-3.48-2.76-6.38-6.07-6.38s-6.07,2.9-6.07,6.38"/>
  <path class="st0" d="M451.22,449.65c7.82,0,7.82-12.76,0-12.76s-7.82,12.76,0,12.76"/>
  <path class="st0" d="M1246.23,940.49c7.82,0,7.82-12.76,0-12.76s-7.83,12.76,0,12.76"/>
  <path class="st0" d="M1595.54,902.49c7.83,0,7.83-12.76,0-12.76s-7.82,12.76,0,12.76"/>
  <path class="st0" d="M1494.89,1480.15c1.01,1.05,2.01,2.11,3.02,3.17,2.33,2.46,6.24,2.46,8.58,0,2.33-2.46,2.33-6.57,0-9.02-1.01-1.05-2.01-2.11-3.02-3.16-2.33-2.46-6.24-2.46-8.58,0-2.33,2.45-2.33,6.56,0,9.02"/>
  <path class="st0" d="M1381.64,1439.68c2.01-1.06,4.02-2.12,6.02-3.18,2.96-1.56,3.77-5.88,2.18-8.73-1.75-3.14-5.35-3.85-8.3-2.29-2.01,1.06-4.01,2.12-6.02,3.18-2.95,1.56-3.76,5.88-2.18,8.73,1.76,3.14,5.35,3.85,8.3,2.29"/>
  <path class="st2" d="M26.62,356.22c5.87,0,5.87-9.57,0-9.57s-5.87,9.57,0,9.57"/>
  <path class="st2" d="M201.28,207.38c5.87,0,5.87-9.57,0-9.57s-5.87,9.57,0,9.57"/>
  <path class="st2" d="M543.04,25.25v3.17c0,2.61,2.07,4.79,4.55,4.79s4.55-2.18,4.55-4.79v-3.17c0-2.6-2.07-4.78-4.55-4.78s-4.55,2.18-4.55,4.78"/>
  <path class="st2" d="M708.66,313.43v3.17c0,2.6,2.07,4.78,4.55,4.78s4.55-2.18,4.55-4.78v-3.17c0-2.61-2.07-4.79-4.55-4.79s-4.55,2.18-4.55,4.79"/>
  <path class="st2" d="M833.87,709.49c1.01-1.05,2.01-2.11,3.02-3.16,1.75-1.84,1.75-4.93,0-6.77-1.76-1.84-4.68-1.84-6.44,0-1,1.06-2.01,2.11-3.02,3.16-1.75,1.85-1.75,4.93,0,6.77,1.75,1.85,4.68,1.84,6.43,0"/>
  <path class="st2" d="M1045.4,791.71c-.13-2.05,1.73-3.54,3.4-3.68.26.05.51.09.77.13-1.84-.58-1.07,1,2.31,4.73.34-2.58-.55-5.13-3.17-5.88-2.16-.63-5.26.75-5.6,3.34-.26,1.93-.17,4,1.33,5.43,1.18,1.12,2.55,1.75,4.14,1.81,3.08.12,6.15-2.44,5.92-5.88-.17-2.6-1.94-4.78-4.55-4.78-2.35,0-4.72,2.18-4.55,4.78"/>
  <path class="st2" d="M1195.04,869.23c5.87,0,5.87-9.57,0-9.57s-5.87,9.57,0,9.57"/>
  <path class="st2" d="M1357.65,976.91c5.86,0,5.86-9.58,0-9.58s-5.87,9.58,0,9.58"/>
  <path class="st2" d="M1375.72,856.56c5.86,0,5.86-9.57,0-9.57s-5.87,9.57,0,9.57"/>
  <path class="st2" d="M737.3,1968.11c5.87,0,5.87-9.57,0-9.57s-5.87,9.57,0,9.57"/>
  <path class="st2" d="M917.98,1942.77c5.87,0,5.87-9.57,0-9.57s-5.87,9.57,0,9.57"/>
  <path class="st2" d="M1041.45,1952.27c5.87,0,5.87-9.57,0-9.57s-5.87,9.57,0,9.57"/>
  <path class="st2" d="M1020.37,1860.44c5.87,0,5.87-9.57,0-9.57s-5.87,9.57,0,9.57"/>
  <path class="st2" d="M908.95,1898.43c5.87,0,5.87-9.57,0-9.57s-5.87,9.57,0,9.57"/>
  <path class="st2" d="M387.98,1664.09c5.87,0,5.87-9.57,0-9.57s-5.87,9.57,0,9.57"/>
  <path class="st2" d="M484.35,1638.77c5.87,0,5.87-9.57,0-9.57s-5.87,9.57,0,9.57"/>
  <path class="st8" d="M1640.71,1445.59c5.87,0,5.87-9.57,0-9.57s-5.87,9.57,0,9.57"/>
  <path class="st8" d="M1670.83,1363.25c5.87,0,5.87-9.57,0-9.57s-5.87,9.57,0,9.57"/>
  <path class="st8" d="M1866.57,1413.91c5.87,0,5.87-9.57,0-9.57s-5.87,9.57,0,9.57"/>
  <path class="st8" d="M1812.37,1413.91c5.87,0,5.87-9.57,0-9.57s-5.87,9.57,0,9.57"/>
  <path class="st8" d="M1800.32,1296.74c5.87,0,5.87-9.57,0-9.57s-5.87,9.57,0,9.57"/>
  <path class="st8" d="M1357.65,1138.4c5.86,0,5.86-9.57,0-9.57s-5.87,9.57,0,9.57"/>
  <path class="st8" d="M623.08,1444.18c1.01-1.05,2.01-2.11,3.01-3.16,1.76-1.84,1.75-4.93,0-6.77-1.76-1.85-4.68-1.84-6.43,0-1.01,1.05-2.01,2.11-3.01,3.16-1.76,1.84-1.75,4.93,0,6.77,1.75,1.84,4.68,1.84,6.43,0"/>
  <path class="st8" d="M457.25,1163.74c5.87,0,5.87-9.57,0-9.57s-5.87,9.57,0,9.57"/>
  <path class="st8" d="M327.76,1116.24c5.87,0,5.87-9.57,0-9.57s-5.87,9.57,0,9.57"/>
  <path class="st8" d="M1360.66,698.23c5.87,0,5.87-9.57,0-9.57s-5.87,9.57,0,9.57"/>
  <path class="st8" d="M1381.74,866.07c5.87,0,5.87-9.57,0-9.57s-5.87,9.57,0,9.57"/>
  <path class="st8" d="M1530.76,804.28v3.17c0,2.6,2.07,4.78,4.55,4.78s4.55-2.18,4.55-4.78v-3.17c0-2.61-2.07-4.79-4.55-4.79s-4.55,2.18-4.55,4.79"/>
  <path class="st8" d="M1706.97,669.73c5.87,0,5.87-9.57,0-9.57s-5.87,9.57,0,9.57"/>
  <path class="st8" d="M1821.19,573.33c1.01,1.05,2.01,2.1,3.02,3.16,1.74,1.85,4.68,1.84,6.43,0,1.76-1.85,1.75-4.91,0-6.76-1-1.06-2.01-2.11-3.01-3.17-1.75-1.84-4.68-1.84-6.44,0-1.75,1.84-1.75,4.92,0,6.77"/>
  <path class="st8" d="M1925.26,481.27v3.17c0,2.61,2.07,4.78,4.55,4.78s4.55-2.17,4.55-4.78v-3.17c0-2.61-2.07-4.79-4.55-4.79s-4.55,2.18-4.55,4.79"/>
  <path class="st8" d="M1694.92,102.88h3.01c2.48,0,4.56-2.18,4.56-4.79s-2.08-4.78-4.56-4.78h-3.01c-2.48,0-4.55,2.17-4.55,4.78s2.07,4.79,4.55,4.79"/>
  <path class="st8" d="M1396.8,90.21c5.87,0,5.87-9.57,0-9.57s-5.87,9.57,0,9.57"/>
  <path class="st8" d="M1186.21,63.47c1-1.06,2-2.11,3.01-3.17,1.75-1.84,1.75-4.92,0-6.76-1.76-1.85-4.68-1.84-6.44,0-1,1.05-2.01,2.1-3.01,3.17-1.74,1.85-1.76,4.91,0,6.76,1.75,1.84,4.69,1.85,6.44,0"/>
  <path class="st8" d="M646.96,14.2h3.01c2.48,0,4.55-2.17,4.55-4.78s-2.07-4.78-4.55-4.78h-3.01c-2.48,0-4.55,2.17-4.55,4.78s2.07,4.78,4.55,4.78"/>
  <path class="st8" d="M716.02,82.04c-1,1.06-2.01,2.11-3.01,3.17-1.75,1.84-1.75,4.92,0,6.76,1.75,1.85,4.68,1.85,6.43,0,1-1.05,2.01-2.11,3.01-3.16,1.75-1.85,1.76-4.93,0-6.77-1.75-1.84-4.68-1.85-6.43,0"/>
  <path class="st8" d="M544.58,52.21c5.87,0,5.87-9.57,0-9.57s-5.87,9.57,0,9.57"/>
  <path class="st8" d="M496.39,166.21c5.87,0,5.87-9.57,0-9.57s-5.87,9.57,0,9.57"/>
  <path class="st8" d="M318.72,280.21h3.01c2.48,0,4.55-2.17,4.55-4.78s-2.07-4.79-4.55-4.79h-3.01c-2.48,0-4.55,2.18-4.55,4.79s2.07,4.78,4.55,4.78"/>
  <path class="st8" d="M70.25,237.43v3.17c0,2.6,2.07,4.78,4.55,4.78s4.55-2.18,4.55-4.78v-3.17c0-2.61-2.07-4.79-4.55-4.79s-4.55,2.18-4.55,4.79"/>
  <path class="st8" d="M1676.85,1822.43c5.87,0,5.87-9.57,0-9.57s-5.87,9.57,0,9.57"/>
  <path class="st8" d="M1776.22,1759.09c5.87,0,5.87-9.57,0-9.57s-5.87,9.57,0,9.57"/>
  <path class="st8" d="M1547.36,1296.74c5.87,0,5.87-9.57,0-9.57s-5.86,9.57,0,9.57"/>
  <path class="st8" d="M1622.65,1280.91c5.87,0,5.87-9.57,0-9.57s-5.87,9.57,0,9.57"/>
  <path class="st8" d="M1714.53,1209.63v-3.17c0-2.61-2.07-4.79-4.55-4.79s-4.55,2.18-4.55,4.79v3.17c0,2.61,2.07,4.78,4.55,4.78s4.55-2.18,4.55-4.78"/>
  <path class="st8" d="M1734.06,1170.07c5.87,0,5.87-9.57,0-9.57s-5.86,9.57,0,9.57"/>
  <path class="st8" d="M1700.95,1122.57c5.87,0,5.87-9.57,0-9.57s-5.87,9.57,0,9.57"/>
  <path class="st8" d="M1806.34,1018.07c5.87,0,5.87-9.57,0-9.57s-5.87,9.57,0,9.57"/>
  <path class="st8" d="M1755.15,983.24c5.87,0,5.87-9.57,0-9.57s-5.87,9.57,0,9.57"/>
  <path class="st8" d="M1761.17,910.4c5.87,0,5.87-9.57,0-9.57s-5.87,9.57,0,9.57"/>
  <path class="st8" d="M424.12,1097.25c5.87,0,5.87-9.57,0-9.57s-5.87,9.57,0,9.57"/>
  <path class="st8" d="M342.81,1049.74c5.87,0,5.87-9.57,0-9.57s-5.87,9.57,0,9.57"/>
  <path class="st8" d="M234.41,1040.23h3.01c2.48,0,4.55-2.18,4.55-4.78s-2.07-4.79-4.55-4.79h-3.01c-2.48,0-4.55,2.18-4.55,4.79s2.07,4.78,4.55,4.78"/>
  <path class="st3" d="M366.91,1192.27h3.01c4.14,0,7.59-3.63,7.59-7.98s-3.45-7.98-7.59-7.98h-3.01c-4.14,0-7.59,3.63-7.59,7.98s3.45,7.98,7.59,7.98"/>
  <path class="st3" d="M186.22,467.08c9.78,0,9.78-15.95,0-15.95s-9.78,15.95,0,15.95"/>
  <path class="st3" d="M1535.31,1179.6c9.78,0,9.78-15.95,0-15.95s-9.78,15.95,0,15.95"/>
  <path class="st3" d="M1451,365.74c9.79,0,9.79-15.95,0-15.95s-9.78,15.95,0,15.95"/>
  <path class="st3" d="M271.97,1481.97v3.17c0,6.09,4.83,11.16,10.62,11.16s10.62-5.08,10.62-11.16v-3.17c0-6.09-4.83-11.16-10.62-11.16s-10.62,5.08-10.62,11.16"/>
  <path class="st3" d="M1776.22,375.26c13.7,0,13.7-22.33,0-22.33s-13.69,22.33,0,22.33"/>
  <path class="st3" d="M845.71,736.27c13.69,0,13.69-22.33,0-22.33s-13.69,22.33,0,22.33"/>
  <path class="st3" d="M65.77,736.27c13.69,0,13.69-22.33,0-22.33s-13.69,22.33,0,22.33"/>
  <path class="st3" d="M1780.76,1521.57c-1,1.05-2,2.11-3,3.17-4.09,4.3-4.09,11.48,0,15.79,4.09,4.3,10.92,4.3,15.01,0,1-1.05,2-2.11,3.01-3.16,4.09-4.3,4.08-11.5,0-15.79-4.1-4.3-10.92-4.29-15.02,0"/>
  <path class="st3" d="M1294.4,1901.66c13.69,0,13.69-22.33,0-22.33s-13.69,22.33,0,22.33"/>
  <path class="st3" d="M764.41,1591.3c13.7,0,13.7-22.33,0-22.33s-13.69,22.33,0,22.33"/>
  <path class="st3" d="M1881.63,872.45c13.69,0,13.69-22.33,0-22.33s-13.69,22.33,0,22.33"/>
  <path class="st7" d="M1351.63,818.61h3.01c5.78,0,10.61-5.08,10.61-11.16s-4.83-11.17-10.61-11.17h-3.01c-5.79,0-10.62,5.08-10.62,11.17s4.83,11.16,10.62,11.16"/>
  <path class="st7" d="M416.52,557.27v3.17c0,6.09,4.83,11.17,10.62,11.17s10.62-5.08,10.62-11.17v-3.17c0-6.08-4.83-11.16-10.62-11.16s-10.62,5.08-10.62,11.16"/>
  <path class="st7" d="M722.25,372.1c13.7,0,13.7-22.33,0-22.33s-13.69,22.33,0,22.33"/>
  <path class="st7" d="M290.75,900.2c-1-1.06-2.01-2.12-3.01-3.18-2.77-2.91-7.05,1.6-4.29,4.52,1,1.05,2.01,2.11,3.01,3.17,2.77,2.92,7.05-1.59,4.29-4.51"/>
  <path class="st7" d="M288.61,956.3c3.91,0,3.91-6.38,0-6.38s-3.91,6.38,0,6.38"/>
  <path class="st7" d="M942.08,1830.34h3.01c3.91,0,3.91-6.38,0-6.38h-3.01c-3.91,0-3.91,6.38,0,6.38"/>
  <path class="st7" d="M53.72,1212.82c3.91,0,3.91-6.38,0-6.38s-3.91,6.38,0,6.38"/>
  <path class="st7" d="M232.26,1090.2c-1.01,1.05-2.01,2.11-3.01,3.16-2.77,2.92,1.53,7.43,4.29,4.52,1-1.06,2.01-2.11,3.01-3.16,2.78-2.9-1.52-7.41-4.29-4.51"/>
  <path class="st7" d="M1164.92,1269.82c3.92,0,3.92-6.38,0-6.38s-3.91,6.38,0,6.38"/>
  <path class="st7" d="M1235.05,1340.37c-1.01,1.05-2,2.11-3.01,3.17-2.76,2.91,1.53,7.43,4.29,4.51,1.01-1.05,2-2.11,3-3.16,2.77-2.91-1.52-7.43-4.28-4.51"/>
  <path class="st7" d="M1107.7,1383.82c3.92,0,3.92-6.38,0-6.38s-3.91,6.38,0,6.38"/>
  <path class="st7" d="M1089.61,1507.31v3.16c0,4.11,6.07,4.11,6.07,0v-3.16c0-4.12-6.07-4.12-6.07,0"/>
  <path class="st7" d="M1532.31,1082.98h3c3.91,0,3.91-6.38,0-6.38h-3c-3.92,0-3.92,6.38,0,6.38"/>
  <path class="st7" d="M1604.58,997.47c3.91,0,3.91-6.38,0-6.38s-3.92,6.38,0,6.38"/>
  <path class="st7" d="M1771.07,764.02c-1,1.06-2,2.11-3,3.17-2.77,2.91,1.52,7.42,4.29,4.51,1-1.06,2-2.11,3-3.17,2.75-2.92-1.53-7.43-4.29-4.51"/>
  <path class="st7" d="M1821.4,623.8c3.92,0,3.92-6.38,0-6.38s-3.91,6.38,0,6.38"/>
  <path class="st7" d="M1770.18,614.28v3.16c0,4.12,6.07,4.12,6.07,0v-3.16c0-4.12-6.07-4.12-6.07,0"/>
  <path class="st7" d="M1743.1,588.96c3.92,0,3.92-6.38,0-6.38s-3.91,6.38,0,6.38"/>
  <path class="st7" d="M1703.96,512.96c3.91,0,3.91-6.38,0-6.38s-3.92,6.38,0,6.38"/>
  <path class="st7" d="M1737.08,484.46c3.91,0,3.91-6.38,0-6.38s-3.92,6.38,0,6.38"/>
  <path class="st7" d="M1794.3,541.46c3.91,0,3.91-6.38,0-6.38s-3.92,6.38,0,6.38"/>
  <path class="st7" d="M788.5,386.29c3.91,0,3.91-6.38,0-6.38s-3.91,6.38,0,6.38"/>
  <path class="st7" d="M833.67,389.46c3.91,0,3.91-6.38,0-6.38s-3.91,6.38,0,6.38"/>
  <path class="st7" d="M866.79,360.96h3.01c3.91,0,3.91-6.38,0-6.38h-3.01c-3.91,0-3.91,6.38,0,6.38"/>
  <path class="st7" d="M851.73,326.12c3.91,0,3.91-6.38,0-6.38s-3.91,6.38,0,6.38"/>
  <path class="st7" d="M794.52,322.96c3.91,0,3.91-6.39,0-6.39s-3.91,6.39,0,6.39"/>
  <path class="st7" d="M381.96,506.63c3.91,0,3.91-6.38,0-6.38s-3.91,6.38,0,6.38"/>
  <path class="st7" d="M324.75,557.3c3.91,0,3.91-6.38,0-6.38s-3.91,6.38,0,6.38"/>
  <path class="st7" d="M339.8,512.96c3.91,0,3.91-6.38,0-6.38s-3.91,6.38,0,6.38"/>
  <path class="st7" d="M369.91,538.29c3.91,0,3.91-6.38,0-6.38s-3.91,6.38,0,6.38"/>
  <path class="st7" d="M217.87,507.01c-2.01-1.05-4.02-2.1-6.02-3.16-1.48-.78-3.28-.43-4.15,1.14-.8,1.43-.39,3.59,1.09,4.37,2,1.06,4.01,2.11,6.02,3.16,1.48.78,3.27.43,4.15-1.14.79-1.43.39-3.59-1.09-4.37"/>
  <path class="st7" d="M144.07,531.96c3.91,0,3.91-6.38,0-6.38s-3.91,6.38,0,6.38"/>
  <path class="st7" d="M101.9,710.89c5.87,0,5.87-9.57,0-9.57s-5.87,9.57,0,9.57"/>
  <path class="st7" d="M104.91,752.06c5.87,0,5.87-9.57,0-9.57s-5.87,9.57,0,9.57"/>
  <path class="st7" d="M44.48,693.66c1,1.05,2,2.11,3.01,3.17,1.75,1.84,4.68,1.84,6.44,0,1.75-1.85,1.75-4.93,0-6.77-1.01-1.06-2.01-2.11-3.01-3.17-1.75-1.84-4.68-1.84-6.43,0-1.75,1.85-1.75,4.93,0,6.77"/>
  <path class="st7" d="M1806.34,384.72c5.87,0,5.87-9.57,0-9.57s-5.87,9.57,0,9.57"/>
  <path class="st7" d="M1800.32,346.72c5.87,0,5.87-9.57,0-9.57s-5.87,9.57,0,9.57"/>
  <path class="st7" d="M1831.91,357.77v3.16c0,2.61,2.07,4.79,4.55,4.79s4.55-2.18,4.55-4.79v-3.16c0-2.61-2.07-4.79-4.55-4.79s-4.55,2.18-4.55,4.79"/>
  <path class="st7" d="M1926.79,612.72c5.87,0,5.87-9.57,0-9.57s-5.86,9.57,0,9.57"/>
  <path class="st7" d="M1938.84,584.22c5.87,0,5.87-9.57,0-9.57s-5.87,9.57,0,9.57"/>
  <path class="st7" d="M1963.14,611.32c1-1.05,2.01-2.11,3.01-3.16,1.75-1.85,1.75-4.92,0-6.77-1.75-1.84-4.69-1.85-6.44,0-1,1.06-2,2.11-3,3.16-1.75,1.85-1.76,4.93,0,6.77,1.75,1.84,4.68,1.85,6.43,0"/>
  <path class="st7" d="M1824.41,1565.93c5.87,0,5.87-9.57,0-9.57s-5.87,9.57,0,9.57"/>
  <path class="st7" d="M1830.44,1537.42c5.86,0,5.86-9.57,0-9.57s-5.87,9.57,0,9.57"/>
  <path class="st7" d="M1866.57,1565.93c5.87,0,5.87-9.57,0-9.57s-5.87,9.57,0,9.57"/>
  <path class="st7" d="M1815.37,1603.92c5.87,0,5.87-9.57,0-9.57s-5.87,9.57,0,9.57"/>
  <path class="st7" d="M1857.53,1588.09c5.87,0,5.87-9.57,0-9.57s-5.87,9.57,0,9.57"/>
  <path class="st7" d="M139.52,1162.12v3.17c0,2.61,2.07,4.79,4.55,4.79s4.55-2.18,4.55-4.79v-3.17c0-2.61-2.07-4.78-4.55-4.78s-4.55,2.18-4.55,4.78"/>
  <path class="st7" d="M110.94,1208.07c5.87,0,5.87-9.57,0-9.57s-5.87,9.57,0,9.57"/>
  <path class="st7" d="M92.87,1173.25c5.87,0,5.87-9.57,0-9.57s-5.87,9.57,0,9.57"/>
  <path class="st7" d="M138.04,1138.4c5.87,0,5.87-9.57,0-9.57s-5.87,9.57,0,9.57"/>
  <path class="st7" d="M125.99,1182.74c5.87,0,5.87-9.57,0-9.57s-5.87,9.57,0,9.57"/>
  <path class="st7" d="M67.24,1136.79v1.75c0,6.17,9.1,6.17,9.1,0v-1.75c0-6.17-9.1-6.17-9.1,0v1.75c0,6.17,9.1,6.17,9.1,0v-1.75c0-6.17-9.1-6.17-9.1,0"/>
  <path class="st7" d="M86.85,1124.16c7.82,0,7.82-12.76,0-12.76s-7.82,12.76,0,12.76"/>
  <path class="st7" d="M122.98,1168.5c7.82,0,7.82-12.76,0-12.76s-7.82,12.76,0,12.76"/>
  <path class="st7" d="M1712.99,788.4h-3.01c-3.31,0-6.07,2.9-6.07,6.38s2.76,6.38,6.07,6.38h3.01c3.31,0,6.07-2.9,6.07-6.38s-2.76-6.38-6.07-6.38"/>
  <path class="st7" d="M1743.1,832.83c7.83,0,7.83-12.76,0-12.76s-7.82,12.76,0,12.76"/>
  <path class="st7" d="M1746.11,804.33c7.83,0,7.83-12.76,0-12.76s-7.82,12.76,0,12.76"/>
  <path class="st4" d="M1661.8,994.34c7.82,0,7.82-12.76,0-12.76s-7.83,12.76,0,12.76"/>
  <path class="st4" d="M1679.82,959.46v3.15c0,3.48,2.76,6.38,6.07,6.38s6.06-2.9,6.06-6.38v-3.15c0-3.48-2.76-6.38-6.06-6.38s-6.07,2.9-6.07,6.38"/>
  <path class="st4" d="M384.97,788.5c7.82,0,7.82-12.77,0-12.77s-7.82,12.77,0,12.77"/>
  <path class="st4" d="M1637.71,443.32c7.83,0,7.83-12.76,0-12.76s-7.82,12.76,0,12.76"/>
  <path class="st4" d="M1643.72,405.31c7.83,0,7.83-12.76,0-12.76s-7.82,12.76,0,12.76"/>
  <path class="st4" d="M689.1,386.27v3.16c0,4.12,6.07,4.12,6.07,0v-3.16c0-4.12-6.07-4.12-6.07,0"/>
  <path class="st4" d="M698.15,351.45c3.91,0,3.91-6.38,0-6.38s-3.91,6.38,0,6.38"/>
  <path class="st4" d="M1749.13,310.29c3.91,0,3.91-6.38,0-6.38s-3.92,6.38,0,6.38"/>
  <path class="st4" d="M1821.4,300.74h-3.02c-3.91,0-3.91,6.38,0,6.38h3.02c3.92,0,3.92-6.38,0-6.38"/>
  <path class="st4" d="M1920.77,1314.16c3.91,0,3.91-6.38,0-6.38s-3.91,6.38,0,6.38"/>
  <path class="st4" d="M1935.83,1288.82c3.91,0,3.91-6.38,0-6.38s-3.92,6.38,0,6.38"/>
  <path class="st4" d="M1947.86,1317.3v3.17c0,4.11,6.07,4.11,6.07,0v-3.17c0-4.11-6.07-4.11-6.07,0"/>
  <path class="st4" d="M1968.95,1292c7.83,0,7.83-12.76,0-12.76s-7.82,12.76,0,12.76"/>
  <path class="st4" d="M1902.71,1314.18c7.82,0,7.82-12.76,0-12.76s-7.83,12.76,0,12.76"/>
  <path class="st4" d="M884.86,345.15c7.82,0,7.82-12.77,0-12.77s-7.82,12.77,0,12.77"/>
  <path class="st4" d="M803.51,354.6v1.74c0,8.23,12.13,8.23,12.13,0v-1.74c0-8.23-12.13-8.23-12.13,0v1.74c0,8.23,12.13,8.23,12.13,0v-1.74c0-8.23-12.13-8.23-12.13,0"/>
  <path class="st4" d="M1107.7,170.97c7.83,0,7.83-12.76,0-12.76s-7.82,12.76,0,12.76"/>
  <path class="st1" d="M1131.79,132.97c7.82,0,7.82-12.76,0-12.76s-7.83,12.76,0,12.76"/>
  <path class="st1" d="M568.67,1903.19c7.82,0,7.82-12.76,0-12.76s-7.82,12.76,0,12.76"/>
  <path class="st1" d="M527.79,1901.32c1-1.05,2-2.11,3.01-3.17,2.34-2.45,2.34-6.57,0-9.02-2.34-2.46-6.24-2.46-8.58,0-1,1.05-2,2.11-3.01,3.16-2.34,2.46-2.33,6.57,0,9.02,2.34,2.46,6.24,2.45,8.58,0"/>
  <path class="st1" d="M535.54,1941.2h3.01c3.31,0,6.07-2.9,6.07-6.38s-2.76-6.38-6.07-6.38h-3.01c-3.31,0-6.07,2.9-6.07,6.38s2.76,6.38,6.07,6.38"/>
  <path class="st1" d="M213.32,319.81c7.82,0,7.82-12.76,0-12.76s-7.82,12.76,0,12.76"/>
  <path class="st1" d="M177.19,284.98c7.82,0,7.82-12.77,0-12.77s-7.82,12.77,0,12.77"/>
  <path class="st1" d="M83.84,291.31c7.82,0,7.82-12.76,0-12.76s-7.82,12.76,0,12.76"/>
  <path class="st1" d="M131.98,215.26v3.17c0,3.47,2.76,6.38,6.06,6.38s6.07-2.91,6.07-6.38v-3.17c0-3.48-2.76-6.38-6.07-6.38s-6.06,2.9-6.06,6.38"/>
  <path class="st1" d="M1673.84,462.32c7.83,0,7.83-12.76,0-12.76s-7.82,12.76,0,12.76"/>
  <path class="st1" d="M1688.85,411.6v3.17c0,3.47,2.76,6.38,6.07,6.38s6.07-2.91,6.07-6.38v-3.17c0-3.48-2.76-6.38-6.07-6.38s-6.07,2.9-6.07,6.38"/>
  <path class="st1" d="M1758.16,512.96c3.91,0,3.91-6.38,0-6.38s-3.91,6.38,0,6.38"/>
  <path class="st1" d="M1821.38,509.77v3.16c0,4.12,6.07,4.12,6.07,0v-3.16c0-4.12-6.07-4.12-6.07,0"/>
  <path class="st1" d="M1782.25,465.46c3.92,0,3.92-6.38,0-6.38s-3.91,6.38,0,6.38"/>
  <path class="st1" d="M1746.11,446.46c3.92,0,3.92-6.38,0-6.38s-3.91,6.38,0,6.38"/>
  <path class="st1" d="M1703.96,579.46c3.91,0,3.91-6.38,0-6.38s-3.92,6.38,0,6.38"/>
  <path class="st1" d="M1622.65,592.13c3.91,0,3.91-6.38,0-6.38s-3.91,6.38,0,6.38"/>
  <path class="st1" d="M1664.81,706.13c3.91,0,3.91-6.38,0-6.38s-3.91,6.38,0,6.38"/>
  <path class="st1" d="M1557.26,714.7c1,1.06,2.01,2.11,3.02,3.16,2.76,2.91,7.06-1.6,4.28-4.51-1-1.05-2.01-2.11-3.01-3.16-2.76-2.93-7.04,1.58-4.29,4.51"/>
  <path class="st1" d="M1616.62,731.47c3.91,0,3.91-6.38,0-6.38s-3.91,6.38,0,6.38"/>
  <path class="st1" d="M1604.58,687.13c3.91,0,3.91-6.38,0-6.38s-3.92,6.38,0,6.38"/>
  <path class="st1" d="M1604.58,687.13c3.91,0,3.91-6.38,0-6.38s-3.92,6.38,0,6.38"/>
  <path class="st1" d="M1598.56,744.14c3.91,0,3.91-6.38,0-6.38s-3.92,6.38,0,6.38"/>
  <path class="st1" d="M487.36,405.29c3.91,0,3.91-6.38,0-6.38s-3.91,6.38,0,6.38"/>
  <path class="st1" d="M499.41,360.96c3.91,0,3.91-6.38,0-6.38s-3.91,6.38,0,6.38"/>
  <path class="st1" d="M532.53,345.12c3.91,0,3.91-6.38,0-6.38s-3.91,6.38,0,6.38"/>
  <path class="st1" d="M508.44,307.12c3.91,0,3.91-6.38,0-6.38s-3.91,6.38,0,6.38"/>
</svg>