<?xml version="1.0" encoding="UTF-8"?>
<svg id="Layer_1" xmlns="http://www.w3.org/2000/svg" version="1.1" viewBox="0 0 512 512">
  <!-- Generator: Adobe Illustrator 29.2.1, SVG Export Plug-In . SVG Version: 2.1.0 Build 116)  -->
  <path d="M195.3,461.8c18.3,7.3,38.1,11.7,58.9,12.4,28.1,1,54.9-4.8,78.8-15.9-28.7-11.3-54.7-27.8-76.9-48.3-14.4,23-35.6,41.2-60.8,51.7Z" style="fill: #ff9100;"/>
  <path d="M256.2,410.1c-50.6-46.8-81.3-114.6-78.7-188.9,0-2.4.2-4.8.4-7.2-9.1-2.3-18.5-3.8-28.3-4.1-13.9-.5-27.4,1.2-40.2,4.8-13.5,23.7-21.7,50.8-22.7,79.9-2.6,75.1,42.8,140.7,108.7,167.2,25.2-10.5,46.5-28.7,60.8-51.7Z" style="fill: #ffc400;"/>
  <path d="M256.2,410.1c11.8-18.8,18.9-40.9,19.7-64.7,2.2-62.6-39.9-116.4-98.1-131.5-.1,2.4-.3,4.8-.4,7.2-2.6,74.3,28.1,142.1,78.7,188.9Z" style="fill: #ff9100;"/>
  <path d="M269.4,38c-33.2,26.6-59.4,61.6-75.2,102-9.1,23.1-14.8,48-16.4,74,58.2,15,100.3,68.9,98.1,131.5-.8,23.8-8,45.9-19.7,64.7,22.2,20.5,48.2,37,76.9,48.3,57.6-26.6,98.5-83.9,100.8-151.7,1.5-43.9-15.3-83-39.2-116.1-25.2-34.9-125.3-152.6-125.3-152.6Z" style="fill: #dd2c00;"/>
</svg>